<svg xmlns="http://www.w3.org/2000/svg"
  xmlns:xlink="http://www.w3.org/1999/xlink" viewBox="0 60 750 500">
  <defs>
    <style>.cls-1,.cls-20,.cls-21,.cls-25,.cls-26,.cls-27,.cls-30,.cls-31,.cls-37,.cls-42,.cls-43,.cls-44,.cls-48,.cls-58,.cls-67,.cls-7,.cls-9{fill:none;}.cls-2{isolation:isolate;}.cls-3{fill:#f0edff50;}.cls-4{fill:#ffc04d;}.cls-5{fill:#ff4a57;}.cls-6{fill:#0082ff;}.cls-7{stroke:#ff4a57;}.cls-18,.cls-19,.cls-20,.cls-22,.cls-25,.cls-26,.cls-27,.cls-28,.cls-29,.cls-30,.cls-31,.cls-35,.cls-37,.cls-40,.cls-42,.cls-43,.cls-44,.cls-48,.cls-58,.cls-62,.cls-67,.cls-7,.cls-71,.cls-9{stroke-miterlimit:10;}.cls-8{fill:#ffc965;}.cls-9{stroke:#00b0aa;stroke-width:0.89px;}.cls-10{fill:#00b0aa;}.cls-11{fill:#ffb5d6;}.cls-12,.cls-72{fill:#444fe4;}.cls-13,.cls-18,.cls-74{fill:#ffba15;}.cls-14,.cls-29,.cls-76{fill:#ff8292;}.cls-15,.cls-40{fill:#008b86;}.cls-16{fill:#181357;mix-blend-mode:soft-light;}.cls-17{clip-path:url(#clip-path);}.cls-18,.cls-19,.cls-21,.cls-22,.cls-28,.cls-29,.cls-30,.cls-31,.cls-35,.cls-37,.cls-40,.cls-48,.cls-62,.cls-71{stroke:#000;}.cls-18,.cls-20,.cls-22,.cls-25,.cls-26,.cls-27,.cls-28,.cls-29,.cls-37,.cls-40,.cls-58,.cls-62{stroke-width:0.33px;}.cls-19,.cls-22,.cls-35,.cls-46{fill:#fff;}.cls-19{stroke-width:0.32px;}.cls-20,.cls-67{stroke:#fff;}.cls-21,.cls-31{stroke-linecap:round;}.cls-21{stroke-linejoin:round;}.cls-21,.cls-42{stroke-width:0.66px;}.cls-23{clip-path:url(#clip-path-2);}.cls-24{clip-path:url(#clip-path-3);}.cls-25,.cls-26,.cls-27,.cls-42,.cls-43,.cls-44{stroke:#fffbff;}.cls-26{stroke-dasharray:2.02 2.02;}.cls-27{stroke-dasharray:2.02 2.02;}.cls-28,.cls-33{fill:#c14917;}.cls-30,.cls-31{stroke-width:0.37px;}.cls-32{clip-path:url(#clip-path-4);}.cls-34{clip-path:url(#clip-path-5);}.cls-35{stroke-width:0.29px;}.cls-36{clip-path:url(#clip-path-6);}.cls-38{clip-path:url(#clip-path-7);}.cls-39{clip-path:url(#clip-path-8);}.cls-41{clip-path:url(#clip-path-9);}.cls-43{stroke-width:0.71px;}.cls-44{stroke-width:0.64px;}.cls-45{fill:#4a1c09;}.cls-47{clip-path:url(#clip-path-10);}.cls-48{stroke-width:0.18px;}.cls-49{clip-path:url(#clip-path-11);}.cls-50{fill:#3942bf;}.cls-51{clip-path:url(#clip-path-12);}.cls-52{clip-path:url(#clip-path-13);}.cls-53{clip-path:url(#clip-path-14);}.cls-54,.cls-62{fill:#ffccd3;}.cls-55{clip-path:url(#clip-path-15);}.cls-56{fill:#ffc438;}.cls-57{clip-path:url(#clip-path-16);}.cls-58{stroke:#008b86;}.cls-59{clip-path:url(#clip-path-17);}.cls-60{clip-path:url(#clip-path-18);}.cls-61{clip-path:url(#clip-path-19);}.cls-63{clip-path:url(#clip-path-20);}.cls-64{clip-path:url(#clip-path-21);}.cls-65{clip-path:url(#clip-path-22);}.cls-66{clip-path:url(#clip-path-23);}.cls-67{stroke-width:0.5px;}.cls-68{clip-path:url(#clip-path-24);}.cls-69{fill:#5b66f7;}.cls-70{clip-path:url(#clip-path-25);}.cls-71{stroke-width:0.19px;}.cls-72{font-size:74.54px;font-family:Galada-Regular, Galada Regular;}.cls-73{letter-spacing:-0.08em;}.cls-74{font-size:22.62px;}.cls-74,.cls-76{font-family:FugazOne-Regular, Fugaz One;}.cls-75{letter-spacing:-0.01em;}.cls-76{font-size:31.56px;}.cls-77{letter-spacing:-0.01em;}.cls-78{letter-spacing:-0.05em;}</style>
    <clipPath id="clip-path">
      <path class="cls-1" d="M244.85,360l1.44-17.12s.14-3.38,1.91-3.6,3.24,3.51,3.24,3.51.1.92,1.92.53,18.17-4.27,18.17-4.27a42.87,42.87,0,0,0,17.69,5.44c10.89,1,11.86,4.59,11.86,4.59l-.91,4.87Z"/>
    </clipPath>
    <clipPath id="clip-path-2">
      <path class="cls-1" d="M46.76,301.06l13.88,10.11s2.82,1.87,2.1,3.5-4.69.95-4.69.95-.84-.39-1.45,1.36-5.77,17.76-5.77,17.76A42.84,42.84,0,0,0,37,347c-6.52,8.79-10.08,7.76-10.08,7.76l-3.69-3.31Z"/>
    </clipPath>
    <clipPath id="clip-path-3">
      <path class="cls-1" d="M260.43,257.75c-2.59-6.75-5.09-12.88-12.48-15.38a32.59,32.59,0,0,0-12.79-1.13c-10.3.77-20.27,2.69-30.48,4.17a224.42,224.42,0,0,0-26.11,4.94l-.45-2.6s-39.85,20-40.09,20.41l1.41,5.7-12.92,41.95s-1.18,9.74-14.23,5.54S78.58,306,78.58,306l-19.8,35.81c20.72,11.55,44,21.34,67.34,25.57,7.11,1.28,13.65,2.32,19.62-2.7a32.33,32.33,0,0,0,7.6-10.36c4.68-9.2,8.21-18.72,12.24-28.22,4.4-10.35,8.76-21,11.15-32.07l39.37-9.9s8.94-4.05,12.11,9.29,4.39,36.76,4.39,36.76l40.89-1.64C272.63,304.87,268.94,279.94,260.43,257.75Z"/>
    </clipPath>
    <clipPath id="clip-path-4">
      <path class="cls-1" d="M126.89,241.92l6.33,16.73s9.45-10.23,23.89-12.93a48,48,0,0,0,5.81-1.49c3.93-1.25,9.74-3.3,12.26-5.14l-6.39-13.34s2.66-6.86.76-9.1-16.42-14.45-16.42-14.45l-2.29.76c.47-.16,2,6.95,2,7.46.54,5.24-2,9.22-7.41,9.09-4.27-.1-8.54-2.92-10.79-6.23a37.79,37.79,0,0,1-2.57-4.34l-3.75,1.71S138.44,232,126.89,241.92Z"/>
    </clipPath>
    <clipPath id="clip-path-5">
      <path class="cls-1" d="M585.07,399.37l-13.64-10.45c-2.52-2.11-4.69-1.4-5.45,1.78-.82,3.46-1.77,7.14-4.4,9.53-3.23,2.92-8.66.84-10.08,5.36-1.51,4.82-3.84,11.94-5.76,16.62-4,9.84-5.15,13.14-5.15,13.14l2.79.88,8.71-3.37Z"/>
    </clipPath>
    <clipPath id="clip-path-6">
      <path class="cls-1" d="M544.28,435.34s13.78-6.23,24.1-26.82c2.09-4.18,10.9-9.29,13.52-11.58.51-.44,4.32,1.31,4.32,1.31l4.79,2.41a1.58,1.58,0,0,1,.26,2.66l-44.54,34.59a2.42,2.42,0,0,1-2-.19c-1.28-.77-2.77-1.54-4.19-2.37C540.12,435.08,543.3,436.21,544.28,435.34Z"/>
    </clipPath>
    <clipPath id="clip-path-7">
      <path class="cls-1" d="M706,314.37l-14.43,9.31c-2.85,1.66-2.91,3.94-.17,5.73,3,1.94,6.12,4.07,7.48,7.36,1.66,4-2.13,8.43,1.64,11.29,4,3.06,9.94,7.65,13.7,11,7.89,7.14,10.63,9.28,10.63,9.28l1.77-2.32-.23-9.34Z"/>
    </clipPath>
    <clipPath id="clip-path-8">
      <path class="cls-1" d="M726.07,364.91s-1.2-15.07-17.1-31.74c-3.23-3.39-5.06-13.4-6.33-16.64-.24-.63,2.69-3.63,2.69-3.63l3.89-3.69a1.58,1.58,0,0,1,2.59.65l17.51,53.62a2.39,2.39,0,0,1-.84,1.76c-1.16.95-2.39,2.09-3.64,3.14C724.42,368.73,726.56,366.12,726.07,364.91Z"/>
    </clipPath>
    <clipPath id="clip-path-9">
      <path class="cls-1" d="M495.93,322.53a32.39,32.39,0,0,1,7.77-10.23c7.5-7.1,33.71-28.49,41.67-35.05a182,182,0,0,1,30.87-20.53l32,17.5-2,5.06,7.84,4.79,11.56,42.35s.86,9.77,14,6,40.08-2.67,40.08-2.67l11.47,22.2c-21.08,10.89-43.35,22.6-66.87,26.07-7.14,1.06-13.71,1.88-19.51-3.33a32.3,32.3,0,0,1-7.26-10.6c-4.39-9.35-7.61-19-11.33-28.6-3.82-9.87-7.59-20-9.72-30.45l-28.24,22s-9,3.9-1.27,15.22,16.46,39.08,16.46,39.08l-18.72,16.15c-17-16.59-35.14-34.19-45.84-55.41C495.66,335.65,492.81,329.68,495.93,322.53Z"/>
    </clipPath>
    <clipPath id="clip-path-10">
      <path class="cls-1" d="M574.17,180.35s-1.08-9.93,5.9-11.4a12.86,12.86,0,0,1,8,.78,8.21,8.21,0,0,1,4.85,6.72c.12.83.06,4.27.09,5.1C593,181.55,582.6,177.62,574.17,180.35Z"/>
    </clipPath>
    <clipPath id="clip-path-11">
      <path class="cls-1" d="M571.76,202.9s-27.36,3.66-39.34-6.73S509,168.5,509,168.5l-19,18,22.7,34.17a29.26,29.26,0,0,0,15.79,9c8.11,1.72,33.09,5,33.65,4.39S571.76,202.9,571.76,202.9Z"/>
    </clipPath>
    <clipPath id="clip-path-12">
      <path class="cls-1" d="M572.56,201.06s4.83-.71,6.09,5.63-10.52,50-16.55,78.14c0,0-7.45,3-22.47-12.54,19.6-9.19,20-40.35,21.81-49.89a45.28,45.28,0,0,1,5.4-14.44A23.31,23.31,0,0,1,572.56,201.06Z"/>
    </clipPath>
    <clipPath id="clip-path-13">
      <path class="cls-1" d="M594.31,200s18.92.39,24.11,6.27-7.91,55.24,7.53,80.06c0,0-15.92,13.72-42.31,5.95L584.7,219S584.72,205.71,594.31,200Z"/>
    </clipPath>
    <clipPath id="clip-path-14">
      <path class="cls-1" d="M591.5,216.9a14.08,14.08,0,0,1-.24-1.47,11.77,11.77,0,0,1,4.8-11,13.2,13.2,0,0,1,14.62-.16,17.89,17.89,0,0,1,6.36,8.36,46.44,46.44,0,0,1,2.3,8.62c.52,2.75,1.12,5.31,1.39,8.13a74.42,74.42,0,0,1-2.15,27.7A24.49,24.49,0,0,1,607.91,272c-3.32,2.07-9.79.17-13.71.08-5.79-.13-13.72-1.45-23.38-3L574.4,245a21.72,21.72,0,0,1,4.75.55c7,1.65,19.33,3,16.45-15.75a26.1,26.1,0,0,0-1.22-4.83C593.43,222.28,592.11,219.69,591.5,216.9Z"/>
    </clipPath>
    <clipPath id="clip-path-15">
      <path class="cls-1" d="M272.6,397.84s12.6,0,15.74,6.55a77.93,77.93,0,0,0-7.85,9.47,16.18,16.18,0,0,0-2.55,12.45,12.44,12.44,0,0,0,.8,2.53l-3.36,4q-3.74,4.35-7.49,8.69c-1.75,2-3.5,4-5.28,6-1.65,1.84-3.06,3.93-5,5.51a2.86,2.86,0,0,1-1.92.82c-.45,0-1.47-.19-1.26-.85Z"/>
    </clipPath>
    <clipPath id="clip-path-16">
      <path class="cls-1" d="M248.71,449.91l17.46-52.68a2.32,2.32,0,0,1,2.63-1.55l4.24.81-19.11,57.65-3.72-1.24A2.36,2.36,0,0,1,248.71,449.91Z"/>
    </clipPath>
    <clipPath id="clip-path-17">
      <path class="cls-1" d="M450.43,449.36s-3.92-12,1.27-17a77.21,77.21,0,0,0,11.46,4.48,16.18,16.18,0,0,0,12.62-1.5,12.94,12.94,0,0,0,2.15-1.55c1.6.64,3.21,1.29,4.81,2q5.31,2.16,10.6,4.36,3.69,1.55,7.37,3.13c2.26,1,4.69,1.67,6.8,3a2.89,2.89,0,0,1,1.37,1.57c.12.43.29,1.46-.41,1.46Z"/>
    </clipPath>
    <clipPath id="clip-path-18">
      <path class="cls-1" d="M507.38,455.66h-55.5a2.33,2.33,0,0,1-2.3-2l-.57-4.29h60.74v3.93A2.37,2.37,0,0,1,507.38,455.66Z"/>
    </clipPath>
    <clipPath id="clip-path-19">
      <path class="cls-1" d="M484.72,377.15a192.22,192.22,0,0,0-1.69-21.7c-.7-5.09-1.4-10.4-3.64-15.09-3.62-7.56-10.95-10.24-18.8-11.19-10.25-1.23-23.08,1.71-33.21,3.7-21,4.11-19.67,4-27.38,5.23l-8.4,3.14-.1-1.17-38.59,12.86-4.13,47.63s.17,9.81-13.33,7.44S300,397.47,300,397.47l-14.7,38.19c22.11,8.6,46.86,18.3,70.61,19.28,8.18.34,15.49-.48,20.56-7.63,2.74-3.86,4.26-8.44,5.57-13,2.36-8.22,5.18-16.13,7.33-24.42Q392.77,396.6,395,383l42.07-9.6s1.05-1.21,1.86,9c1.08,13.67,2.22,39.67,2.22,39.67h43.65C485.88,406.18,485,392.24,484.72,377.15Z"/>
    </clipPath>
    <clipPath id="clip-path-20">
      <path class="cls-1" d="M304,251.44s6.75,19,24.86,30.6,40.8,2.46,40.8,2.46L356,315.9s-17.87,6.61-42.1-7.58-30.61-44.08-30.61-44.08Z"/>
    </clipPath>
    <clipPath id="clip-path-21">
      <path class="cls-1" d="M457.14,248s-6.75,19-24.86,30.6S393.33,283,393.33,283L415,310.75s8,7.08,32.25-5.9c24.76-13.25,30.61-44.07,30.61-44.07Z"/>
    </clipPath>
    <clipPath id="clip-path-22">
      <path class="cls-1" d="M390.3,282.52s2.67,38.67,6.77,59.5a20.12,20.12,0,0,0,12.24,15c19.06,7.43,23-25.09,23-25.09l-14.53,2.94L415.64,313s5.2,3.1,15.07,0c0,0-3.19-20-4.88-31.32C425.83,281.7,407.5,286.32,390.3,282.52Z"/>
    </clipPath>
    <clipPath id="clip-path-23">
      <path class="cls-1" d="M374,282.75s8.45,53,6.87,70c-2.25,24.08-29.48,17.39-29.48,17.39l4.59-54.5s-5.5,5.3-15.81,4.4c0,0-.91-22.52-1.69-33.95C338.51,286.06,358.05,290.15,374,282.75Z"/>
    </clipPath>
    <clipPath id="clip-path-24">
      <polygon class="cls-1" points="354.46 333.77 395.05 282.63 401.28 283.75 353.91 343.42 354.46 333.77"/>
    </clipPath>
    <clipPath id="clip-path-25">
      <path class="cls-1" d="M389.49,289.78c7.21,5.76,7.54,17.32.75,25.81s-18.15,10.7-25.35,4.93"/>
    </clipPath>
  </defs>
  <title>5569702</title>
  <g class="cls-2">
    <g id="OBJECTS">
      <path class="cls-3" d="M507.88,277.8c-51.21,23.26-105.06,29-159.14,11.48-58.49-18.92-104.14-64.11-163-80.6-25.1-7-53.3-7-75.94,6-24.72,14.13-39.62,42.45-41,70.9s9.66,56.61,27,79.21c47,61.32,128.33,83.42,201.36,93.37,101,13.76,215.08,1.67,306.6-45.59,24.31-12.55,46.75-30,61.1-53.31,18.79-30.53,21.11-69.76-1.52-98.85a71.56,71.56,0,0,0-46.63-26.64c-21.48-2.74-40,7.73-58.15,17.85C542,260.81,525.18,269.94,507.88,277.8Z"/>
      <path class="cls-4" d="M69.73,122.45a11.93,11.93,0,1,1,11.93-11.93A11.94,11.94,0,0,1,69.73,122.45Zm0-22.56a10.64,10.64,0,1,0,10.64,10.63A10.64,10.64,0,0,0,69.73,99.89Z"/>
      <path class="cls-5" d="M673.52,145a11.92,11.92,0,1,1,11.92-11.92A11.93,11.93,0,0,1,673.52,145Zm0-22.55a10.64,10.64,0,1,0,10.64,10.63A10.64,10.64,0,0,0,673.52,122.45Z"/>
      <path class="cls-6" d="M114.43,404.26a4.78,4.78,0,1,1-4.78-4.77A4.78,4.78,0,0,1,114.43,404.26Z"/>
      <path class="cls-7" d="M164.06,461.17a4.78,4.78,0,1,1-4.78-4.78A4.78,4.78,0,0,1,164.06,461.17Z"/>
      <path class="cls-5" d="M444.06,183.1a4.42,4.42,0,1,1-4.42-4.42A4.42,4.42,0,0,1,444.06,183.1Z"/>
      <path class="cls-5" d="M607.4,452.7a4.78,4.78,0,1,1-4.78-4.77A4.78,4.78,0,0,1,607.4,452.7Z"/>
      <path class="cls-4" d="M575,97.62a4.78,4.78,0,1,1-4.78-4.78A4.78,4.78,0,0,1,575,97.62Z"/>
      <path class="cls-5" d="M52.38,275.37a4.78,4.78,0,1,1-4.77-4.78A4.76,4.76,0,0,1,52.38,275.37Z"/>
      <path class="cls-4" d="M416.1,233.44a2.39,2.39,0,1,1-2.39-2.39A2.39,2.39,0,0,1,416.1,233.44Z"/>
      <path class="cls-8" d="M671.13,221.45a2.39,2.39,0,1,1-2.39-2.39A2.39,2.39,0,0,1,671.13,221.45Z"/>
      <path class="cls-5" d="M244.13,178.68a2.39,2.39,0,1,1-2.39-2.39A2.39,2.39,0,0,1,244.13,178.68Z"/>
      <path class="cls-9" d="M673.52,345.29a2.39,2.39,0,1,1-2.39-2.39A2.39,2.39,0,0,1,673.52,345.29Z"/>
      <path class="cls-9" d="M166.44,133.08a2.39,2.39,0,1,1-2.38-2.39A2.38,2.38,0,0,1,166.44,133.08Z"/>
      <path class="cls-6" d="M118.49,141.66a2.39,2.39,0,1,1-2.39-2.38A2.39,2.39,0,0,1,118.49,141.66Z"/>
      <circle class="cls-6" cx="704.78" cy="253.07" r="2.39"/>
      <path class="cls-6" d="M628.73,73.15a2.39,2.39,0,1,1-2.38-2.38A2.39,2.39,0,0,1,628.73,73.15Z"/>
      <path class="cls-10" d="M547.73,157.29a10.85,10.85,0,1,1,10.85-10.85A10.85,10.85,0,0,1,547.73,157.29Zm0-20.42a9.57,9.57,0,1,0,9.57,9.57A9.58,9.58,0,0,0,547.73,136.87Z"/>
      <path class="cls-10" d="M96.72,296.23a9.07,9.07,0,1,1,9.06-9.07A9.08,9.08,0,0,1,96.72,296.23Zm0-16.85a7.78,7.78,0,1,0,7.78,7.78A7.79,7.79,0,0,0,96.72,279.38Z"/>
      <path class="cls-11" d="M660.15,299.53a7.25,7.25,0,1,1,7.24-7.25A7.26,7.26,0,0,1,660.15,299.53Zm0-13.2a6,6,0,1,0,6,5.95A6,6,0,0,0,660.15,286.33Z"/>
      <path class="cls-6" d="M617.69,176.91a7.24,7.24,0,1,1,7.25-7.24A7.25,7.25,0,0,1,617.69,176.91Zm0-13.2a6,6,0,1,0,6,6A6,6,0,0,0,617.69,163.71Z"/>
      <path class="cls-4" d="M676.3,414.45a7.25,7.25,0,1,1,7.24-7.25A7.25,7.25,0,0,1,676.3,414.45Zm0-13.2a6,6,0,1,0,6,5.95A6,6,0,0,0,676.3,401.25Z"/>
      <path class="cls-6" d="M318.88,211.83a8.76,8.76,0,1,1,8.76-8.76A8.77,8.77,0,0,1,318.88,211.83Zm0-16.39a7.63,7.63,0,1,0,7.63,7.63A7.64,7.64,0,0,0,318.88,195.44Z"/>
      <path class="cls-11" d="M64.66,459.23a6.53,6.53,0,1,1,6.53-6.53A6.54,6.54,0,0,1,64.66,459.23Zm0-11.76a5.24,5.24,0,1,0,5.24,5.23A5.24,5.24,0,0,0,64.66,447.47Z"/>
      <polygon class="cls-14" points="130.54 244.37 140.62 269.98 175.85 253.63 167.88 229.24 130.54 244.37"/>
      <polygon class="cls-16" points="171.72 240.98 136.9 260.53 134.58 254.62 159.65 241.49 171.72 240.98"/>
      <path d="M138,268.16c.24-.4,40.09-20.41,40.09-20.41l.85,4.91-39.53,21.2Z"/>
      <polygon class="cls-14" points="249.32 346.23 244.33 324.35 270.6 324.19 270.32 341.73 249.32 346.23"/>
      <path class="cls-15" d="M265.21,340.56a4.16,4.16,0,0,1-.26-.82,3.41,3.41,0,0,1,0-1.71,2.13,2.13,0,0,1,1.34-1.37,12.47,12.47,0,0,0,2.34-1.44c.84-.67,1.53-1.48,2.29-2.22.43-.43.57.06.57.47,0,1,0,2,0,3a18.52,18.52,0,0,1,0,2.56Z"/>
      <path class="cls-12" d="M244.85,360l1.44-17.12s.14-3.38,1.91-3.6,3.24,3.51,3.24,3.51.1.92,1.92.53,18.17-4.27,18.17-4.27a42.87,42.87,0,0,0,17.69,5.44c10.89,1,11.86,4.59,11.86,4.59l-.91,4.87Z"/>
      <g class="cls-17">
        <path class="cls-5" d="M245.61,343.09s1.88-1.38,2.76.39.18,2.6,3.1,2.15a1.21,1.21,0,0,1,1.33.89,3.33,3.33,0,0,1,.18.94,1.9,1.9,0,0,1,0,.63c-.19.74-1.15.83-1.78.89a22.69,22.69,0,0,0-3.19.59c-.54.14-1.07.31-1.6.49a10.57,10.57,0,0,1-1.59.6,5.38,5.38,0,0,1,.11-1.19c.08-.67.15-1.35.23-2l.44-3.86Z"/>
        <path class="cls-18" d="M244.34,354.41c.28-.16,8.29-1.19,8.29-1.19a2.7,2.7,0,0,1,2.7,1.84,41.18,41.18,0,0,1,1.54,4.33L244,360.88Z"/>
        <path class="cls-13" d="M274.72,357.5s-1.41-5.72,4.1-7.18,5.69-4.53,8.58-6.83c.29-.23,11.37,1.74,11.6,1.72s4.62,2.29,4.69,2.82-.46,5.42-.46,5.42l-8,2.51Z"/>
        <path class="cls-19" d="M270.32,338.2s-3.78,4.33-.94,5.87,7.37,3.51,10.4,3.65,4.29-5.18,4.29-5.18Z"/>
        <path d="M273.5,338.66h0a.77.77,0,0,0-1.09.17l-2.09,2.89a.78.78,0,0,0,.18,1.09h0a.78.78,0,0,0,1.09-.17l2.09-2.9A.77.77,0,0,0,273.5,338.66Z"/>
        <path d="M276.62,339.22h0a.79.79,0,0,0-1.09.18l-2.45,3.4a.78.78,0,0,0,.18,1.09h0a.79.79,0,0,0,1.09-.18l2.45-3.4A.78.78,0,0,0,276.62,339.22Z"/>
        <path d="M279.3,340.43h0a.77.77,0,0,0-1.09.17L275.76,344a.77.77,0,0,0,.17,1.09h0a.78.78,0,0,0,1.09-.18l2.46-3.41A.77.77,0,0,0,279.3,340.43Z"/>
        <path d="M282.25,341.25h0a.79.79,0,0,0-1.09.17l-2.45,3.41a.79.79,0,0,0,.17,1.09h0a.78.78,0,0,0,1.09-.18l2.46-3.4A.78.78,0,0,0,282.25,341.25Z"/>
        <path d="M263,354.31a1.11,1.11,0,0,1-.11-.69c.19-.64,1-.16,1.33.09a34.45,34.45,0,0,1,4,3.68l4.38-.48-11.7-7.33a3.74,3.74,0,0,0-2.79-.48l-14.25,3.16.11,1.19,12-2a3.6,3.6,0,0,1,3.61,1.59l3.2,4.91,2.32-.25A14.53,14.53,0,0,1,263,354.31Z"/>
      </g>
      <path class="cls-20" d="M277.09,358.16s-1.4-5.72,4.11-7.18,6.13-3.92,8-7"/>
      <line class="cls-21" x1="245.97" y1="346.6" x2="246.29" y2="341.88"/>
      <path class="cls-21" d="M246.29,342.08a3,3,0,0,0-1.87-2.12c-.92-.35-2.74-.37-2.74,1a1.6,1.6,0,0,0,.7,1.25c1,.72,3.61-.19,3.73,1.63"/>
      <path class="cls-22" d="M298.9,354l-55.66,6.09-1.44,5.17a1.58,1.58,0,0,0,1.8,2l55.56-9.7a2.44,2.44,0,0,0,1.17-1.57c.29-1.46.72-3.08,1.06-4.69a3.38,3.38,0,0,0-.61-2.75c-.29-.43-1.12-.09-1.73.25a1.15,1.15,0,0,0,.52,2.19.3.3,0,0,1,.11.07C300.65,351.87,300.2,353.89,298.9,354Z"/>
      <path d="M173.53,294.87l42.57-10.7s8.94-4.05,12.11,9.29,4.39,36.76,4.39,36.76l40.89-1.64c-.86-23.71-4.55-48.64-13.06-70.83-2.59-6.75-5.09-12.88-12.48-15.38a32.59,32.59,0,0,0-12.79-1.13c-10.3.77-20.27,2.69-30.48,4.17-11.84,1.71-24,3.65-35.24,7.82l-22.12,27Z"/>
      <polygon class="cls-14" points="56.23 312.03 77.53 319.11 64.04 341.65 49.19 332.33 56.23 312.03"/>
      <path class="cls-15" d="M52.83,328.55a4.91,4.91,0,0,1,.84.21,3.57,3.57,0,0,1,1.48.86,2.13,2.13,0,0,1,.47,1.86,12,12,0,0,0,0,2.75,28,28,0,0,0,.71,3.11c.13.59-.35.45-.7.25L53,336a19.41,19.41,0,0,1-2.2-1.3Z"/>
      <path class="cls-12" d="M46.76,301.06l13.88,10.11s2.82,1.87,2.1,3.5-4.69.95-4.69.95-.84-.39-1.45,1.36-5.77,17.76-5.77,17.76A42.84,42.84,0,0,0,37,347c-6.52,8.79-10.08,7.76-10.08,7.76l-3.69-3.31Z"/>
      <g class="cls-23">
        <path class="cls-5" d="M60.83,310.49s.21,2.32-1.76,2.15-2.32-1.19-3.45,1.54a1.21,1.21,0,0,1-1.44.68,3.34,3.34,0,0,1-.91-.34,2,2,0,0,1-.52-.36c-.53-.54-.1-1.41.17-2a22.32,22.32,0,0,0,1.15-3c.16-.53.29-1.07.41-1.61a9.24,9.24,0,0,1,.32-1.68,5.87,5.87,0,0,1,1,.71l1.62,1.25,3.07,2.38Z"/>
        <path class="cls-18" d="M51.82,303.54c0,.31-3.29,7.7-3.29,7.7a2.69,2.69,0,0,1-3,1.35,40.06,40.06,0,0,1-4.5-.93l5.41-11.8Z"/>
        <path class="cls-13" d="M33.42,327.9s5.62,1.77,4,7.24.92,7.21,1.39,10.87c0,.37-7.38,8.83-7.49,9s-4.34,2.76-4.84,2.55-4.39-3.2-4.39-3.2l2-8.13Z"/>
        <path class="cls-19" d="M52.2,334.15s-1.74-5.48-4.54-3.85-6.82,4.49-8.5,7,2.2,6.36,2.2,6.36Z"/>
        <path d="M50.16,336.63h0a.77.77,0,0,0,.42-1l-1.39-3.28a.79.79,0,0,0-1-.42h0a.79.79,0,0,0-.41,1l1.39,3.28A.78.78,0,0,0,50.16,336.63Z"/>
        <path d="M48.06,339h0a.77.77,0,0,0,.41-1l-1.63-3.86a.79.79,0,0,0-1-.42h0a.78.78,0,0,0-.41,1L47,338.6A.78.78,0,0,0,48.06,339Z"/>
        <path d="M45.64,340.68h0a.79.79,0,0,0,.42-1l-1.64-3.86a.79.79,0,0,0-1-.42h0a.79.79,0,0,0-.42,1l1.64,3.86A.79.79,0,0,0,45.64,340.68Z"/>
        <path d="M43.41,342.77h0a.78.78,0,0,0,.41-1l-1.64-3.87a.78.78,0,0,0-1-.41h0a.78.78,0,0,0-.41,1l1.64,3.87A.78.78,0,0,0,43.41,342.77Z"/>
        <path d="M42.2,319.57a1.12,1.12,0,0,1,.65.27c.45.49-.39,1-.76,1.09a36.37,36.37,0,0,1-5.21,1.48l-1.86,4,12.34-6.2a3.72,3.72,0,0,0,1.85-2.14l4.7-13.82-1.09-.52L48.27,315A3.61,3.61,0,0,1,45,317.29l-5.86.18-1,2.11A14.49,14.49,0,0,1,42.2,319.57Z"/>
      </g>
      <path class="cls-20" d="M31.62,329.59s5.62,1.76,4,7.24.16,7.27,1.81,10.47"/>
      <line class="cls-21" x1="57.64" y1="308.98" x2="61.52" y2="311.7"/>
      <path class="cls-21" d="M61.35,311.6a3,3,0,0,0,2.78-.51c.78-.6,1.74-2.14.55-2.86a1.55,1.55,0,0,0-1.42-.05c-1.16.51-1.71,3.18-3.34,2.35"/>
      <path class="cls-22" d="M23.85,350.38,47.5,299.63l-3.67-3.91a1.59,1.59,0,0,0-2.63.51L20.68,348.76a2.43,2.43,0,0,0,.74,1.82c1.1,1,2.27,2.21,3.46,3.34a3.37,3.37,0,0,0,2.67.9c.52,0,.65-.91.68-1.61a1.15,1.15,0,0,0-2.14-.69s-.06,0-.12.06C24.79,353,23.29,351.57,23.85,350.38Z"/>
      <path d="M139.44,273.86l-12.92,41.95s-1.18,9.74-14.23,5.54S78.58,306,78.58,306l-19.8,35.81c20.72,11.55,44,21.34,67.34,25.57,7.11,1.28,13.65,2.32,19.62-2.7a32.33,32.33,0,0,0,7.6-10.36c4.68-9.2,8.21-18.72,12.24-28.22,4.68-11,9.31-22.39,11.59-34.18l-11.61-32.91Z"/>
      <polygon class="cls-16" points="270.5 328.87 246.47 333.74 245.55 329.7 270.5 328.87"/>
      <polygon class="cls-16" points="60.13 339.2 67.63 315.82 72.31 317.38 60.13 339.2"/>
      <g class="cls-24">
        <line class="cls-25" x1="178.61" y1="250.58" x2="139.44" y2="273.86"/>
        <line class="cls-25" x1="91.06" y1="306.53" x2="68.27" y2="360.73"/>
        <line class="cls-25" x1="229.24" y1="319.68" x2="276.57" y2="312.58"/>
        <path class="cls-25" d="M148.85,269.37c-.41-3.41,4.76,17.21-7.95,16.55"/>
        <line class="cls-25" x1="176.94" y1="294.01" x2="165.38" y2="258.49"/>
        <path class="cls-25" d="M82,328l1,.31"/>
        <path class="cls-26" d="M84.9,328.94c10.46,3.36,20.94,6.69,31.38,10.13,3,1,6.6,2.05,9.75.9,5.28-1.92,6.44-8.25,8.24-12.84,4.33-11,8-27.71,10.14-39.85"/>
        <path class="cls-25" d="M144.59,286.29c0-.33.11-.66.17-1"/>
        <path class="cls-25" d="M169.23,256.23c.15.3,4.65,14.91,5.57,17.91a2.67,2.67,0,0,1,.1,1.09h0a2.72,2.72,0,0,1-1.4,2.09l-1.69.91"/>
        <path class="cls-25" d="M174,283.11l1-.3"/>
        <path class="cls-27" d="M176.92,282.21l34.68-10.83c5.11-1.59,10.12-4.21,15.54-4.58,7.2-.49,10.19,5.77,11.79,11.85a194.6,194.6,0,0,1,6,36.6"/>
        <path class="cls-25" d="M245,316.26l.06,1"/>
      </g>
      <path class="cls-14" d="M124.72,212.76S138.31,216.6,138,226c-.17,4.49-8.36,14.52-13.71,18,0,0-41.8,24.5-58.88.4a27.15,27.15,0,0,1-4.49-10.73c-1.07-5.69-2.81-17.07-1.4-24.82l24.28-1.5s-5.08,27.37,19.14,18.25a26.54,26.54,0,0,0,4.48-2.19Z"/>
      <path class="cls-14" d="M65.3,202.51c.24-4.15.59-8.3,1-12.43.32-2.94.68-5.88,1.17-8.79.41-2.5.75-5.77,2.16-7.93,1.07-1.65,2.54-1.56,3.2.07,1,2.56.76,5.82.63,8.49,0,.64-.06,1.29-.11,1.93"/>
      <path class="cls-14" d="M70.48,199.52q.34-5.88,1-11.72c.33-3.15.7-6.3,1.23-9.42.41-2.48.77-5.31,1.89-7.58.73-1.48,2.42-2.38,3.31-.75,1.14,2.09.91,5.14.86,7.41,0,1.13-.09,2.27-.17,3.4"/>
      <path class="cls-14" d="M76.93,184.66a4.88,4.88,0,0,0,.41-1.66c.28-1.6.73-3.54,1-5.15A12,12,0,0,1,79.58,174c.51-1,1.51-3.09,2.88-2s1.18,4.08,1.2,5.58c0,2.08-.27,4.16-.28,6.24l0,7.38s6-7,6.25-3.56c.17,2.49-1.51,6.54-2.68,9a34,34,0,0,0-2.42,7c-.24,1-.49,2.26-.76,3.7l-24.28,1.5q.38-6.59,1.1-13.13c.29-2.67.63-5.34,1.07-8,.41-2.45.75-5.43,1.94-7.63.81-1.5,2.43-2.35,3.3-.65,1.12,2.18.89,5.25.82,7.6,0,1.05-.09,2.09-.16,3.14,0-.17,1.23-.71,1.37-.79L72,187.54l3.24-1.87a7.28,7.28,0,0,0,1.44-.75A1.33,1.33,0,0,0,76.93,184.66Z"/>
      <line class="cls-28" x1="67.49" y1="181.29" x2="67.07" y2="188.79"/>
      <line class="cls-28" x1="73.29" y1="174.87" x2="72.6" y2="187.22"/>
      <line class="cls-28" x1="78.81" y1="175.47" x2="77.65" y2="186.14"/>
      <path class="cls-29" d="M82.12,191.74s-7.69,1-8.82,8.08"/>
      <path class="cls-14" d="M157.26,231.62s-10.45-16.94-7.4-25.82c1.52-4.43,2-2.29,7.87-5.39,0,0,41.81-24.49,58.89-.39a27.29,27.29,0,0,1,4.49,10.73c1.06,5.69,2.8,17.07,1.4,24.82l-24.28,1.5s5.08-27.37-19.14-18.25a25.8,25.8,0,0,0-4.48,2.19Z"/>
      <path class="cls-14" d="M216.68,241.87q-.36,6.23-1,12.43c-.31,2.94-.67,5.87-1.16,8.79-.42,2.5-.75,5.77-2.16,7.93-1.08,1.65-2.54,1.56-3.21-.08-1-2.55-.75-5.81-.63-8.48,0-.65.07-1.29.12-1.93"/>
      <path class="cls-14" d="M211.49,244.86c-.22,3.92-.55,7.83-1,11.72-.32,3.15-.7,6.3-1.22,9.42-.41,2.47-.78,5.31-1.9,7.58-.72,1.48-2.42,2.38-3.31.75-1.14-2.09-.91-5.14-.86-7.41,0-1.13.09-2.27.17-3.4"/>
      <path class="cls-14" d="M205.05,259.72a4.66,4.66,0,0,0-.41,1.66c-.28,1.6-.73,3.54-1,5.15a11.81,11.81,0,0,1-1.26,3.87c-.5,1-1.5,3.09-2.87,2s-1.19-4.08-1.2-5.58c0-2.08.27-4.16.27-6.24l0-7.38s-6,7-6.26,3.56c-.16-2.49,1.51-6.54,2.69-9a34.64,34.64,0,0,0,2.42-7c.23-1,.49-2.26.76-3.7l24.28-1.5c-.25,4.39-.63,8.77-1.1,13.13-.3,2.67-.63,5.34-1.07,8-.41,2.45-.75,5.43-2,7.63-.81,1.5-2.42,2.35-3.3.65-1.12-2.18-.88-5.25-.82-7.6,0-1.05.09-2.09.16-3.14,0,.16-1.22.71-1.36.79l-3.14,1.82-3.24,1.87a7.2,7.2,0,0,0-1.43.75A1.33,1.33,0,0,0,205.05,259.72Z"/>
      <line class="cls-28" x1="214.49" y1="263.09" x2="214.91" y2="255.59"/>
      <line class="cls-28" x1="208.69" y1="269.51" x2="209.38" y2="257.16"/>
      <line class="cls-28" x1="203.16" y1="268.91" x2="204.32" y2="258.24"/>
      <path class="cls-12" d="M131.94,205.64a16.73,16.73,0,0,0,3.94-.88l-4.11-18.51-2.32-5.75s-4.36,2.43-5.18,10.12c-.63,5.9-6.8,9.27-6.8,9.27a18,18,0,0,0,1.76,1.82c1.3-.6,4-2.13,5.16-4.81,0,0-.85,4.44-3.08,6.4a15.18,15.18,0,0,0,5.58,2.18c.45-.85,1.41-2.87,1.41-2.87l0,3.06a16.89,16.89,0,0,0,2.83,0c.16-.93.31-1.92.31-1.92Z"/>
      <path class="cls-12" d="M116,197.37l0-.38a10,10,0,0,0,8.61-8.48l.37.06A10.39,10.39,0,0,1,116,197.37Z"/>
      <path class="cls-14" d="M148.49,222.4c10.3-6.43,4.95-19.23,4.64-20.2a64.86,64.86,0,0,1-7.33,2.18l-2.35-7.15-4.79,1.58-6.55-2.61L136,207.13s-5.26,2.34-11.91,5.87C125.2,221.8,141,227.11,148.49,222.4Z"/>
      <path class="cls-16" d="M144.12,199.28a7.19,7.19,0,0,1-4.85,2.94c-1.89.22-3.25-1.57-4.82-2.8,0,0,2.23,7.53,11.35,5Z"/>
      <path class="cls-14" d="M131.5,194.83c2.65,6.43,6.38,9,10.92,8s6.54-4,3.43-16.57c-1.47-6-4.83-6.23-9.37-5.27S129.15,189.15,131.5,194.83Z"/>
      <path class="cls-14" d="M129.21,194.91c.64,1.37,1.91,2.12,2.86,1.68s1.19-1.9.55-3.27-1.91-2.11-2.85-1.67S128.58,193.55,129.21,194.91Z"/>
      <path class="cls-30" d="M141.19,195.13s1,.2,1.3-.56-1.15-2.09-1.15-2.09"/>
      <path d="M141.21,197.17a9,9,0,0,1-3.47-.68S138.34,202.21,141.21,197.17Z"/>
      <path class="cls-31" d="M136.28,191.66a2,2,0,0,1,2.86-.36"/>
      <path class="cls-31" d="M142.34,190.71a2,2,0,0,1,2.82-.58"/>
      <path class="cls-30" d="M132,195.19s-.13-2.66-1.83-2.24"/>
      <path d="M137.09,189.53,136,190a.3.3,0,0,1-.4-.15h0a.31.31,0,0,1,.16-.4l1.07-.48a.32.32,0,0,1,.4.16h0A.3.3,0,0,1,137.09,189.53Z"/>
      <path d="M144.42,187.6l-1.16-.13a.3.3,0,0,0-.34.27h0a.3.3,0,0,0,.27.33l1.17.13a.3.3,0,0,0,.33-.27h0A.3.3,0,0,0,144.42,187.6Z"/>
      <path class="cls-12" d="M130.2,191.5s.59.07.73.1a4.35,4.35,0,0,1,2.34,2.67l-.47-6.59-2.92.5-.09,3.41"/>
      <path class="cls-12" d="M142.62,183.13a5.29,5.29,0,0,1,1.8,2.46h0l2.73-.89s-2.18-6.16-8-6.79a14.07,14.07,0,0,0-9.74,2.59l.18,9.92,6.35-2.08c-.08-1-.19-2.12-.19-2.12l1.08,1.84,6.46-2.12A8.54,8.54,0,0,0,142.62,183.13Z"/>
      <path class="cls-12" d="M147.93,184.43c-2.23-4.39-5.73-6.43-10.69-6.22v-.38c5.12-.21,8.73,1.9,11,6.43Z"/>
      <path class="cls-22" d="M126.89,241.92l6.33,16.73s9.45-10.23,23.89-12.93a48,48,0,0,0,5.81-1.49c3.93-1.25,9.74-3.3,12.26-5.14l-6.39-13.34s2.66-6.86.76-9.1-16.42-14.45-16.42-14.45l-2.29.76c.47-.16,2,6.95,2,7.46.54,5.24-2,9.22-7.41,9.09-4.27-.1-8.54-2.92-10.79-6.23a37.79,37.79,0,0,1-2.57-4.34l-3.75,1.71S138.44,232,126.89,241.92Z"/>
      <g class="cls-32">
        <path class="cls-12" d="M132.31,236.75a5.74,5.74,0,1,1,6.33-5.08A5.75,5.75,0,0,1,132.31,236.75Zm1.21-11.09a5.41,5.41,0,1,0,4.79,6A5.43,5.43,0,0,0,133.52,225.66Z"/>
        <path class="cls-15" d="M153.83,241.52a5.74,5.74,0,1,1,6.33-5.09A5.75,5.75,0,0,1,153.83,241.52ZM155,230.43a5.41,5.41,0,1,0,4.79,6A5.42,5.42,0,0,0,155,230.43Z"/>
        <path class="cls-12" d="M166.58,237.68a3,3,0,1,1,3.26-2.62A3,3,0,0,1,166.58,237.68Zm.61-5.55a2.63,2.63,0,1,0,2.32,2.9A2.63,2.63,0,0,0,167.19,232.13Z"/>
        <path class="cls-12" d="M146.91,252.75a3,3,0,1,1,3.25-2.62A3,3,0,0,1,146.91,252.75Zm.6-5.54a2.62,2.62,0,1,0,2.32,2.89A2.62,2.62,0,0,0,147.51,247.21Z"/>
        <path class="cls-13" d="M135.43,245a2.38,2.38,0,1,1,2.62-2.11A2.38,2.38,0,0,1,135.43,245Zm.48-4.4a2,2,0,1,0,1.81,2.26A2,2,0,0,0,135.91,240.64Z"/>
        <path class="cls-13" d="M159.44,227a2.38,2.38,0,1,1,2.62-2.11A2.38,2.38,0,0,1,159.44,227Zm.48-4.4a2,2,0,1,0,1.81,2.26A2.05,2.05,0,0,0,159.92,222.55Z"/>
        <path class="cls-5" d="M144.32,229a3,3,0,1,1,3.26-2.62A3,3,0,0,1,144.32,229Zm.61-5.54a2.62,2.62,0,1,0,2.32,2.89A2.63,2.63,0,0,0,144.93,223.5Z"/>
        <path class="cls-15" d="M134.44,218a3,3,0,1,1,3.26-2.61A2.94,2.94,0,0,1,134.44,218Zm.61-5.54a2.62,2.62,0,1,0,2.32,2.89A2.61,2.61,0,0,0,135.05,212.45Z"/>
        <path class="cls-13" d="M150.76,209.18a3,3,0,1,1,3.26-2.62A3,3,0,0,1,150.76,209.18Zm.61-5.55a2.63,2.63,0,1,0,2.32,2.89A2.64,2.64,0,0,0,151.37,203.63Z"/>
        <path class="cls-5" d="M163,218.93a5.74,5.74,0,1,1,6.34-5.09A5.75,5.75,0,0,1,163,218.93Zm1.21-11.09a5.41,5.41,0,1,0,4.8,6A5.4,5.4,0,0,0,164.22,207.84Z"/>
        <path class="cls-5" d="M131.73,259.35a5.74,5.74,0,1,1,6.33-5.08A5.75,5.75,0,0,1,131.73,259.35Zm1.21-11.09a5.41,5.41,0,1,0,4.79,6A5.42,5.42,0,0,0,132.94,248.26Z"/>
      </g>
      <path class="cls-33" d="M615.65,278.42c-.22-.41-39.41-21.7-39.41-21.7l-1,4.89,38.82,22.46Z"/>
      <polygon class="cls-33" points="571.86 393.4 559.02 374.99 541.24 394.32 554.4 405.91 571.86 393.4"/>
      <polygon class="cls-16" points="563.47 381.37 547.19 399.57 544.75 397.52 563.47 381.37"/>
      <path class="cls-13" d="M558.05,402.68a22.71,22.71,0,0,0-2.75-3.25,2.16,2.16,0,0,0-1.92.07,11.71,11.71,0,0,1-2.64.76,28.28,28.28,0,0,1-3.18.2c-.61,0-.34.46,0,.74l2.23,2.08a17.1,17.1,0,0,0,1.87,1.74S558.08,402.73,558.05,402.68Z"/>
      <path d="M585.07,399.37l-13.64-10.45c-2.52-2.11-4.69-1.4-5.45,1.78-.82,3.46-1.77,7.14-4.4,9.53-3.23,2.92-8.66.84-10.08,5.36-1.51,4.82-3.84,11.94-5.76,16.62-4,9.84-5.15,13.14-5.15,13.14l2.79.88,8.71-3.37Z"/>
      <g class="cls-34">
        <path class="cls-35" d="M549.78,407.88l.58-1.62a1.86,1.86,0,0,1,.37-.71,1.5,1.5,0,0,1,1.28-.37,3.17,3.17,0,0,1,2.58,4.44c-.48,1.06-1.49,1.78-2.13,2.75a8.88,8.88,0,0,0-1.11,4.13,9.29,9.29,0,0,1-1.07,4.14c-1.31,2.06-3.07,2.06-5,1.14C547,417.24,548.14,412.44,549.78,407.88Z"/>
        <path d="M548.27,407.7h0a.62.62,0,0,1,.66-.58l2.84.19a.61.61,0,0,1,.58.66h0a.61.61,0,0,1-.66.58l-2.84-.19A.61.61,0,0,1,548.27,407.7Z"/>
        <path d="M547,409.91h0a.62.62,0,0,1,.66-.58l3.35.22a.64.64,0,0,1,.58.67h0a.62.62,0,0,1-.66.58l-3.35-.23A.62.62,0,0,1,547,409.91Z"/>
        <path d="M546.4,412.17h0a.62.62,0,0,1,.66-.58l3.35.23a.62.62,0,0,1,.58.66h0a.63.63,0,0,1-.67.58l-3.34-.22A.63.63,0,0,1,546.4,412.17Z"/>
        <path d="M545.4,414.41h0a.62.62,0,0,1,.66-.58l3.35.22a.63.63,0,0,1,.58.67h0a.62.62,0,0,1-.66.58l-3.35-.23A.62.62,0,0,1,545.4,414.41Z"/>
        <path d="M544.77,416.63h0a.64.64,0,0,1,.67-.58l3.35.23a.62.62,0,0,1,.58.66h0a.64.64,0,0,1-.67.58l-3.35-.22A.64.64,0,0,1,544.77,416.63Z"/>
        <path d="M544.15,418.86h0a.63.63,0,0,1,.67-.59l3.34.23a.61.61,0,0,1,.58.66h0a.61.61,0,0,1-.66.58l-3.35-.22A.62.62,0,0,1,544.15,418.86Z"/>
        <path class="cls-13" d="M574.72,394c-.75,1.18-1.74,2.18-2.52,3.35a8.15,8.15,0,0,0-1.45,4.62,5.46,5.46,0,0,0,2.08,4.26l9.31-7a3.73,3.73,0,0,0,1.74-2.22,2.93,2.93,0,0,0-.58-1.92c-1.21-1.84-3.22-2.91-5.13-3.87-.72-.36-1.72-1.07-2.35-.24-.26.34-.22,1.07-.36,1.49A9.6,9.6,0,0,1,574.72,394Z"/>
        <path class="cls-12" d="M562.53,411.6a9.21,9.21,0,0,0-.79,8.42.78.78,0,0,0,.29.39c.29.15.61-.11.83-.35a41.26,41.26,0,0,0,3.68-4.75c1-1.51,2.58-3.51,3-5.3.41-2-1.29-2.44-2.78-1.83A9.12,9.12,0,0,0,562.53,411.6Z"/>
        <path class="cls-5" d="M548.76,425.17a13.53,13.53,0,0,0,2.74-3.7c.91-1.65,2.71-6.25,5.18-5.85s2.11,4.87,1.86,6.52c-.6,4.13-3.23,7.69-6.34,10.35-2.63,2.24-7.47,5.8-11.16,5.2-2.09-.33-.71-4.78-.48-6.06.54-3,1.63-6.18,4.25-8a1.15,1.15,0,0,1,.62-.25.88.88,0,0,1,.76.54c.22.46.07,1.06.51,1.41A1.55,1.55,0,0,0,548.76,425.17Z"/>
        <path class="cls-15" d="M571.42,389a5.36,5.36,0,0,0-1.79,2.86c-.31,1.1-.42,2.25-.63,3.38a18.7,18.7,0,0,1-1.45,4.49,8.51,8.51,0,0,1-1.93,2.8,4.1,4.1,0,0,1-3.13,1.13,2.74,2.74,0,0,1-2.41-2.11c-.23-1.28.64-2.46,1.34-3.56a17.45,17.45,0,0,0,2-4.44c.52-1.81.77-3.78,1.9-5.29a6.32,6.32,0,0,1,7-1.9c.6.21,2.34.9,1.65,1.77C573.56,388.7,572.08,388.54,571.42,389Z"/>
      </g>
      <line class="cls-21" x1="574.38" y1="391.18" x2="570.68" y2="388.23"/>
      <path class="cls-21" d="M570.82,388.37a3,3,0,0,1-.3-2.81c.35-.92,1.56-2.28,2.59-1.35a1.62,1.62,0,0,1,.45,1.36c-.16,1.25-2.57,2.54-1.31,3.86"/>
      <path class="cls-22" d="M544.28,435.34s13.78-6.23,24.1-26.82c2.09-4.18,10.9-9.29,13.52-11.58.51-.44,4.32,1.31,4.32,1.31l4.79,2.41a1.58,1.58,0,0,1,.26,2.66l-44.54,34.59a2.42,2.42,0,0,1-2-.19c-1.28-.77-2.77-1.54-4.19-2.37C540.12,435.08,543.3,436.21,544.28,435.34Z"/>
      <g class="cls-36">
        <polygon points="591.89 399.57 539.86 441.66 544.75 441.18 593.93 403.04 591.89 399.57"/>
        <path class="cls-37" d="M582.13,401.4a8.94,8.94,0,0,0-5.37,1.65,16.22,16.22,0,0,0-5.84,6.69,59.55,59.55,0,0,0-2.39,7.43,13.64,13.64,0,0,1-3.91,6.64q9.51-6.33,18.4-13.52c1.42-1.15,3.9-3.16,3.65-5.27S584,401.54,582.13,401.4Z"/>
        <rect class="cls-5" x="575.88" y="402.49" width="3.17" height="9.89" rx="1.39" transform="translate(609.25 1113.45) rotate(-127.78)"/>
      </g>
      <polygon class="cls-33" points="695.99 324.92 674.48 331.3 691.21 351.94 702.37 345.43 695.99 324.92"/>
      <path class="cls-13" d="M700,340.92a21.77,21.77,0,0,0-4,1.49,2.14,2.14,0,0,0-.57,1.83,12.59,12.59,0,0,1-.18,2.74,29,29,0,0,1-.89,3.06c-.17.59.32.48.69.29l2.7-1.4a17.62,17.62,0,0,0,2.27-1.17S700,340.91,700,340.92Z"/>
      <path d="M706,314.37l-14.43,9.31c-2.85,1.66-2.91,3.94-.17,5.73,3,1.94,6.12,4.07,7.48,7.36,1.66,4-2.13,8.43,1.64,11.29,4,3.06,9.94,7.65,13.7,11,7.89,7.14,10.63,9.28,10.63,9.28l1.77-2.32-.23-9.34Z"/>
      <g class="cls-38">
        <path class="cls-35" d="M702.08,350.45l-1.32-1.09a1.9,1.9,0,0,1-.55-.58,1.55,1.55,0,0,1,.09-1.34,3.16,3.16,0,0,1,5-.92c.84.81,1.18,2,1.87,2.93a9,9,0,0,0,3.52,2.44,9.38,9.38,0,0,1,3.54,2.41c1.49,1.93.9,3.58-.63,5.11C710,356.23,705.83,353.54,702.08,350.45Z"/>
        <path d="M701.4,351.82h0a.63.63,0,0,1-.32-.82l1.14-2.61a.63.63,0,0,1,.82-.33h0a.63.63,0,0,1,.32.83l-1.14,2.61A.62.62,0,0,1,701.4,351.82Z"/>
        <path d="M703.06,353.74h0a.63.63,0,0,1-.32-.82l1.34-3.08a.64.64,0,0,1,.82-.32h0a.63.63,0,0,1,.33.82l-1.35,3.08A.62.62,0,0,1,703.06,353.74Z"/>
        <path d="M705,355.09h0a.63.63,0,0,1-.32-.82l1.34-3.08a.64.64,0,0,1,.82-.32h0a.62.62,0,0,1,.32.82l-1.34,3.08A.63.63,0,0,1,705,355.09Z"/>
        <path d="M706.75,356.79h0a.62.62,0,0,1-.32-.82l1.34-3.08a.63.63,0,0,1,.82-.32h0a.63.63,0,0,1,.32.82l-1.34,3.07A.63.63,0,0,1,706.75,356.79Z"/>
        <path d="M708.63,358.12h0a.62.62,0,0,1-.32-.82l1.34-3.07a.62.62,0,0,1,.82-.32h0a.62.62,0,0,1,.33.82l-1.35,3.07A.62.62,0,0,1,708.63,358.12Z"/>
        <path d="M710.51,359.46h0a.63.63,0,0,1-.32-.82l1.35-3.08a.63.63,0,0,1,.82-.32h0a.63.63,0,0,1,.32.82l-1.34,3.08A.64.64,0,0,1,710.51,359.46Z"/>
        <path class="cls-13" d="M697.41,322.28c.85,1.1,1.46,2.38,2.3,3.5a8.13,8.13,0,0,0,3.85,2.93,5.5,5.5,0,0,0,4.73-.52q-1.72-5.56-3.43-11.12a3.8,3.8,0,0,0-1.5-2.39,3,3,0,0,0-2-.1c-2.14.52-3.83,2-5.38,3.52-.58.55-1.58,1.26-1,2.13.23.36.93.57,1.27.84A9.64,9.64,0,0,1,697.41,322.28Z"/>
        <path class="cls-12" d="M709.89,339.71a9.23,9.23,0,0,0,7.66,3.59.75.75,0,0,0,.47-.14c.24-.22.1-.62,0-.9a43.92,43.92,0,0,0-3.23-5.07c-1.08-1.45-2.43-3.62-4-4.58-1.71-1-2.73.4-2.66,2A9.19,9.19,0,0,0,709.89,339.71Z"/>
        <path class="cls-5" d="M718,357.26a13.28,13.28,0,0,0-2.55-3.83c-1.25-1.41-5-4.66-3.76-6.86s5.3-.33,6.76.45c3.69,2,6.15,5.64,7.6,9.47,1.23,3.23,2.94,9,1.13,12.26-1,1.86-4.74-.95-5.86-1.59-2.63-1.52-5.27-3.62-6.06-6.7a1.15,1.15,0,0,1,0-.66.89.89,0,0,1,.77-.53c.51-.06,1,.28,1.5,0C718.23,358.83,718.28,358.08,718,357.26Z"/>
        <path class="cls-15" d="M691.66,323.72a5.29,5.29,0,0,0,2.09,2.65c.93.67,2,1.16,3,1.74a18.53,18.53,0,0,1,3.73,2.87,8.62,8.62,0,0,1,2,2.77,4.11,4.11,0,0,1,0,3.33,2.74,2.74,0,0,1-2.79,1.56c-1.28-.22-2.1-1.44-2.9-2.47a17.3,17.3,0,0,0-3.5-3.39c-1.53-1.1-3.3-2-4.34-3.58a6.28,6.28,0,0,1,.58-7.23c.4-.5,1.63-1.91,2.22-1C692.06,321.6,691.42,322.93,691.66,323.72Z"/>
      </g>
      <line class="cls-21" x1="694.68" y1="321.66" x2="690.65" y2="324.15"/>
      <path class="cls-21" d="M690.83,324.06a3,3,0,0,1-2.75-.66c-.74-.64-1.61-2.24-.39-2.89a1.57,1.57,0,0,1,1.43,0c1.12.57,1.52,3.28,3.19,2.53"/>
      <path class="cls-22" d="M726.07,364.91s-1.2-15.07-17.1-31.74c-3.23-3.39-5.06-13.4-6.33-16.64-.24-.63,2.69-3.63,2.69-3.63l3.89-3.69a1.58,1.58,0,0,1,2.59.65l17.51,53.62a2.39,2.39,0,0,1-.84,1.76c-1.16.95-2.39,2.09-3.64,3.14C724.42,368.73,726.56,366.12,726.07,364.91Z"/>
      <g class="cls-39">
        <polygon points="708.49 308.02 730.53 371.2 731.72 366.44 712.44 307.26 708.49 308.02"/>
        <path class="cls-37" d="M706.92,317.82a8.89,8.89,0,0,0-.27,5.61,16.29,16.29,0,0,0,4.33,7.76,60.13,60.13,0,0,0,6.19,4.76,13.73,13.73,0,0,1,4.93,5.92c-1.84-7.39-4-14.7-6.52-21.88-.6-1.73-1.65-4.74-3.73-5.22S707.66,316.16,706.92,317.82Z"/>
        <rect class="cls-5" x="709.43" y="319.3" width="3.17" height="9.89" rx="1.39" transform="translate(1487.5 412.36) rotate(161.96)"/>
      </g>
      <path class="cls-40" d="M495.93,322.53a32.39,32.39,0,0,1,7.77-10.23c7.5-7.1,33.71-28.49,41.67-35.05a182,182,0,0,1,30.87-20.53l32,17.5-2,5.06,7.84,4.79,11.56,42.35s.86,9.77,14,6,40.08-2.67,40.08-2.67l11.47,22.2c-21.08,10.89-43.35,22.6-66.87,26.07-7.14,1.06-13.71,1.88-19.51-3.33a32.3,32.3,0,0,1-7.26-10.6c-4.39-9.35-7.61-19-11.33-28.6-3.82-9.87-7.59-20-9.72-30.45.2,1-9.94,7.61-11.2,8.58-5.22,4-10.74,7.71-15.73,12-3,2.56-5.56,6.16-5.26,10.08.37,4.81,4.46,9.49,6.52,13.77,2.24,4.64,4.22,9.41,6.12,14.2,1.63,4.14,3.19,8.32,4.68,12.51.14.38,2.1,5,1.82,5.23l-18.72,16.15c-17-16.59-35.14-34.19-45.84-55.41C495.66,335.65,492.81,329.68,495.93,322.53Z"/>
      <polygon class="cls-16" points="691.21 351.94 684.48 328.33 679.74 329.74 691.21 351.94"/>
      <g class="cls-41">
        <path class="cls-42" d="M683.86,336.82s-57.74,19.08-63.18,8.85-16.45-59.35-16.45-59.35"/>
        <path class="cls-43" d="M686.23,340.56s-63.46,20.05-69.24,9.18-17.48-63.09-17.48-63.09"/>
        <path class="cls-43" d="M553.22,390.63s-39-51.54-31.17-61.07,49.51-36.5,49.51-36.5"/>
        <path class="cls-44" d="M557,389.05s-35.38-49.26-28.67-58,46.77-35,46.77-35"/>
        <polyline class="cls-43" points="576.52 305.03 575.07 296.02 570.64 291.35"/>
      </g>
      <path class="cls-45" d="M593,181.55s2.61,4.14-.67,7.46l-3.27,2.85-.39-5.54-.17-6.55Z"/>
      <path class="cls-33" d="M580.89,217.3c-11.62-3.56-8.07-12.05-8-13.07,5.66-3.31,6-5,6-5l.42-7.51,5,.29,5.65-4.22.33,11.78s4.42.69,11.76,2.38C603.23,210.7,589.38,219.9,580.89,217.3Z"/>
      <path class="cls-16" d="M579.13,193.83a7.2,7.2,0,0,0,5.45,1.59c1.88-.27,2.74-2.35,3.93-3.94,0,0-.21,7.84-9.68,7.71Z"/>
      <path class="cls-33" d="M590.18,186.27c-.91,6.91-3.84,10.35-8.48,10.6s-7.33-2.15-7.59-15.13c-.12-6.14,3.06-7.27,7.7-7.51S591,180.18,590.18,186.27Z"/>
      <path class="cls-33" d="M592.41,185.76c-.26,1.48-1.3,2.54-2.33,2.36s-1.64-1.53-1.38-3,1.3-2.54,2.33-2.36S592.67,184.28,592.41,185.76Z"/>
      <path class="cls-30" d="M580.84,188.9s-.94.39-1.38-.31.72-2.27.72-2.27"/>
      <path d="M581.22,190.91a9,9,0,0,0,3.27-1.34S585,195.29,581.22,190.91Z"/>
      <path class="cls-31" d="M585,184.55a2,2,0,0,0-2.88.19"/>
      <path class="cls-31" d="M578.87,184.78a2,2,0,0,0-2.89,0"/>
      <path class="cls-30" d="M589.89,187.19s-.38-2.64,1.37-2.56"/>
      <path d="M581.15,184.74a2.49,2.49,0,1,0,2.49-2.48A2.49,2.49,0,0,0,581.15,184.74Z"/>
      <path d="M574.67,184.74a2.49,2.49,0,1,0,2.49-2.48A2.49,2.49,0,0,0,574.67,184.74Z"/>
      <line class="cls-30" x1="585" y1="183.18" x2="590.27" y2="182.84"/>
      <path class="cls-30" d="M581.6,184.43a1.25,1.25,0,1,0-2.49,0"/>
      <path class="cls-46" d="M575.34,185s-.34-2.38,2.45-1.93"/>
      <path class="cls-46" d="M581.83,185s-.34-2.38,2.45-1.93"/>
      <path class="cls-45" d="M590.27,182.66s-1.74,2.16-2.84-.16l-.6-1.72s-2.74,1.36-3.41-.5-.22-1.49-.22-1.49l6.37,1.18Z"/>
      <path class="cls-45" d="M581,179.26s-.5,2.48-2.29,1.43l-1.18-.89s-1.22,2.16-2.52,1.22-.82-.9-.82-.9l4.06-1.31Z"/>
      <path class="cls-15" d="M580.07,169a12.86,12.86,0,0,1,8,.78,8.21,8.21,0,0,1,4.85,6.72c.12.83.08,2.1.11,2.93l.07,0c-.08.72-.07,1.43-.09,2.14-5.52-1.81-12.73-3.2-18.84-1.2C574.17,180.35,573.09,170.42,580.07,169Z"/>
      <g class="cls-47">
        <path class="cls-48" d="M593,178.28s-13.18-4.74-18.92-.87"/>
        <line class="cls-48" x1="592.01" y1="177.94" x2="591.97" y2="182.09"/>
        <line class="cls-48" x1="590.27" y1="177.4" x2="589.75" y2="181.39"/>
        <line class="cls-48" x1="588.51" y1="176.97" x2="588.07" y2="180.79"/>
        <line class="cls-48" x1="586.8" y1="176.62" x2="586.49" y2="180.93"/>
        <line class="cls-48" x1="585.28" y1="176.32" x2="584.52" y2="180.03"/>
        <line class="cls-48" x1="582.87" y1="176.01" x2="583.23" y2="180.24"/>
        <line class="cls-48" x1="581.6" y1="175.92" x2="581.15" y2="180.03"/>
        <line class="cls-48" x1="579.64" y1="175.9" x2="579.64" y2="180.03"/>
        <line class="cls-48" x1="578.22" y1="175.95" x2="577.71" y2="179.9"/>
        <line class="cls-48" x1="575.98" y1="176.51" x2="576.37" y2="180.2"/>
        <line class="cls-48" x1="574.95" y1="176.93" x2="574.95" y2="180.64"/>
      </g>
      <path class="cls-12" d="M571.76,202.9s-27.36,3.66-39.34-6.73S509,168.5,509,168.5l-19,18,22.7,34.17a29.26,29.26,0,0,0,15.79,9c8.11,1.72,33.09,5,33.65,4.39S571.76,202.9,571.76,202.9Z"/>
      <g class="cls-49">
        <line class="cls-29" x1="515.4" y1="175.95" x2="496.42" y2="196.2"/>
        <path d="M495.62,187.33a.79.79,0,1,0,1.58,0,.79.79,0,0,0-1.58,0Z"/>
        <path class="cls-50" d="M496.19,226.56a17.35,17.35,0,1,0,17.34-17.36A17.36,17.36,0,0,0,496.19,226.56Z"/>
      </g>
      <path class="cls-33" d="M486.89,165.52c-1-2.34-2.51-4.55-2.47-7.13,0-2,1.31-2.67,2.75-1.64a18.36,18.36,0,0,1,5.13,6.1"/>
      <path class="cls-33" d="M490,161.49a22.29,22.29,0,0,1-2.07-6.64c-.17-1.64.78-3.3,2.4-2.4,2.08,1.16,3.15,3.07,4.31,5,.59,1,1.14,2,1.68,3"/>
      <path class="cls-33" d="M494.31,158.09c-1-2.31-2-3.36-2.27-5.88-.17-1.63,1.13-3,2.75-2.07a9.3,9.3,0,0,1,4.16,3.94"/>
      <path class="cls-33" d="M497.94,152.51l2.13,2.52s1.36-9.14,3.39-6.35c1.47,2,2.21,6.33,2.55,9.07A33.74,33.74,0,0,0,507.7,165c.35,1,.79,2.17,1.32,3.53L490.55,186c-2.13-3.84-5.41-11-7.34-14.94-1.17-2.41-2.31-4.84-3.35-7.32-1-2.29-2.26-5-2.43-7.49-.11-1.7.8-3.28,2.44-2.31,2.11,1.24,3.55,4,4.75,6,.53.9,1,1.82,1.54,2.74-.08-.14.66-1.26.73-1.4.57-1.07,1.13-2.14,1.69-3.21l1.73-3.31a6.84,6.84,0,0,0,.82-1.4c0-.11,1.49,1.07,1.49,1"/>
      <path class="cls-28" d="M489.15,158.12c1.09,2,2.67,4.41,2.94,6.67.2,1.71-.8,2.42-2.13,1.63-2.08-1.23-3.68-3.66-5.07-5.58"/>
      <path class="cls-28" d="M492.92,154.78c1.09,2,2.54,4.19,2.81,6.44.2,1.72-.8,2.43-2.13,1.64a15.86,15.86,0,0,1-4.82-4.76"/>
      <path class="cls-28" d="M497.25,152.41c.9,2.06,2.24,4.66,2.29,6.92,0,1.73-1,2.34-2.28,1.43-1.95-1.43-3.31-4-4.51-6"/>
      <path class="cls-33" d="M497.21,168.13c-2.83-6.58,2.86-13.1,2.86-13.1l2.95,3.13-2.7,6Z"/>
      <path class="cls-28" d="M497.21,168.13c-2.83-6.58,2.48-12.48,2.48-12.48"/>
      <polygon class="cls-16" points="509 168.5 488.56 182.13 490.55 185.95 509 168.5"/>
      <polyline class="cls-13" points="589.92 206.26 589.09 279.06 560.26 272.02 569.64 225.53 577.53 204.13"/>
      <path class="cls-12" d="M572.56,201.06s4.83-.71,6.09,5.63-10.52,50-16.55,78.14c0,0-7.45,3-22.47-12.54,8.79-4.12,14.91-18.51,17-28.35A177.87,177.87,0,0,1,566,212.48a80,80,0,0,1,5.54-11.1C571.75,201.08,572.21,201.12,572.56,201.06Z"/>
      <path class="cls-30" d="M559,234c2.84-8.64,4.08-14,7.07-21.54a80,80,0,0,1,5.54-11.1"/>
      <g class="cls-51">
        <path class="cls-30" d="M575.8,206.26c-.18.57-5.59,5.59-5.59,5.59l4.08,4.83"/>
        <path class="cls-30" d="M574.52,217.5c-2,10.14-9.13,34.75-15.31,60.52,0,0-6.82,2.1-21.84-13.47"/>
      </g>
      <path class="cls-12" d="M594.31,200s13.93.75,19.12,6.63-1.92,56.6,12.52,79.7c0,0-15.92,13.72-42.31,5.95L584.7,219S584.72,205.71,594.31,200Z"/>
      <g class="cls-52">
        <path class="cls-30" d="M590.27,206.26c.06.59,3.3,7.44,3.3,7.44l-4.93,4.23"/>
        <line class="cls-30" x1="589.97" y1="288.36" x2="588.45" y2="218.7"/>
        <path class="cls-30" d="M624.68,282.11c-15.65,9.83-34.22,6.4-34.71,6.25"/>
      </g>
      <path class="cls-13" d="M590.11,197a7.47,7.47,0,0,1,7.38,5.23c-.45,4.75-6.85,10.5-14.5,10a10,10,0,0,1-9.43-8.51c0-5.21,5.36-5.83,5.36-5.83l0,.73a5.43,5.43,0,0,0,2.5,4.94c1.51.94,3.71,1.23,6.6-1a5.48,5.48,0,0,0,2.15-4.53Z"/>
      <path class="cls-30" d="M583.51,209.88s-2.33,4.81.29,9.12"/>
      <path class="cls-30" d="M581.66,209.88s-4.38,3.06-4.19,8.11"/>
      <polygon points="583.43 218.9 583.95 218.64 585 220.03 583.74 220.67 583.43 218.9"/>
      <polygon points="577.16 217.77 577.74 217.79 577.98 219.51 576.58 219.46 577.16 217.77"/>
      <path class="cls-33" d="M554,258.18a8.91,8.91,0,0,1-4.37-2.79,2.33,2.33,0,0,1,1.23-3.93c2.7-.55,4.81.58,7.41,1.2"/>
      <path class="cls-33" d="M556.85,253.35a22,22,0,0,1-6.26-3c-1.32-1-1.81-2.63-.12-3.39,2.41-1.08,4.39-.2,6.61.28,1.11.24,2.22.51,3.31.8"/>
      <path class="cls-33" d="M557.66,248.33c-2.35-.87-3.83-.83-5.85-2.35-1.32-1-1.41-2.86.36-3.43a9.31,9.31,0,0,1,5.72-.35"/>
      <path class="cls-33" d="M554.64,242.16l3.3.15s-5.76-7.22-2.33-6.8c2.48.3,6.14,2.7,8.37,4.32a34.32,34.32,0,0,0,6.42,3.68c1,.42,2.65,1,4,1.49l-3.58,24.08c-4.26-1.06-8.49-2.25-12.69-3.53-2.57-.79-5.12-1.61-7.64-2.54-2.34-.86-5.2-1.75-7.14-3.34-1.32-1.07-1.85-2.82,0-3.36,2.35-.7,5.33.11,7.62.61,1,.23,2,.48,3,.75-.16-.05-.47-1.34-.52-1.5l-1.2-3.42L551,249.23a7.13,7.13,0,0,0-.46-1.55c-.06-.1,1.8-.36,1.72-.44"/>
      <polygon class="cls-16" points="574.4 245 568.06 268.36 570.82 269.08 574.4 245"/>
      <path class="cls-12" d="M594.93,218.64c0-.49.39-3.52.52-4,.51-1.95,1.28-5.83,4.83-8.3,4.3-3,6.53-3.92,10.9-1,6.23,4.13,7.49,11.31,8.74,18.18a80.92,80.92,0,0,1-.16,28.28c-1.3,7.4-4.26,16.92-11.85,20.21-3.6,1.55-9.79.17-13.71.08-5.79-.13-13.72-1.45-23.38-3L574.4,245l4.75.55c7.51.86,19.88,6.74,16.3-12-.32-1.64-.38-6.31-.46-8A62.91,62.91,0,0,1,594.93,218.64Z"/>
      <g class="cls-53">
        <circle class="cls-50" cx="608.76" cy="273.46" r="17.35" transform="translate(-15.06 510.55) rotate(-45)"/>
      </g>
      <path class="cls-30" d="M608.76,204.4a11.22,11.22,0,0,0-8.48,1.94c-4.74,3.51-5.45,9.87-5.43,15.32,0,5.18.79,10.31.88,15.48,0,3.25.38,9.16-4,9.79a10.49,10.49,0,0,1-2.85-.11c-5-.65-6.89-1-11.89-1.54"/>
      <path class="cls-30" d="M617.82,260.11s-5.2,11.78-12.16,12.48-34.84-3.51-34.84-3.51"/>
      <line class="cls-30" x1="583.63" y1="246.13" x2="580.73" y2="270.47"/>
      <circle cx="578.12" cy="249.42" r="0.79"/>
      <path class="cls-33" d="M352.91,352.93c.32-.35,56.67-18.54,56.67-18.54l-.12,5L353.2,358.8Z"/>
      <polygon class="cls-54" points="287.56 404.41 310.12 408.78 297.94 435.68 277.48 428.92 275.94 417.84 287.56 404.41"/>
      <path class="cls-15" d="M272.6,397.84s12.6,0,15.74,6.55a77.93,77.93,0,0,0-7.85,9.47,16.18,16.18,0,0,0-2.55,12.45,12.44,12.44,0,0,0,.8,2.53l-3.36,4q-3.74,4.35-7.49,8.69c-1.75,2-3.5,4-5.28,6-1.65,1.84-3.06,3.93-5,5.51a2.86,2.86,0,0,1-1.92.82c-.45,0-1.47-.19-1.26-.85Z"/>
      <g class="cls-55">
        <path class="cls-56" d="M281.93,398.12c.23.16-2.78,14-15.18,12.86l5.52-16.65Z"/>
        <path class="cls-56" d="M263.88,420.89s5.37,2.2,3.95,6.5-4.27,9.11-3.72,12.22a6.19,6.19,0,0,0,3,4.33s-8.05,11.29-8.28,11.47-4.91.46-4.91.46L252,454.14Z"/>
        <path class="cls-46" d="M278,432.69h0a.78.78,0,0,0,.23-1.08L276,428.09a.79.79,0,0,0-1.08-.23h0a.79.79,0,0,0-.23,1.08l2.28,3.52A.79.79,0,0,0,278,432.69Z"/>
        <path class="cls-46" d="M276,435.32h0a.78.78,0,0,0,.23-1.08L274,430.72a.79.79,0,0,0-1.08-.23h0a.79.79,0,0,0-.23,1.08l2.28,3.52A.78.78,0,0,0,276,435.32Z"/>
        <path class="cls-46" d="M274,438h0a.78.78,0,0,0,.24-1.08L272,433.35a.77.77,0,0,0-1.07-.23h0a.78.78,0,0,0-.23,1.08l2.28,3.52A.77.77,0,0,0,274,438Z"/>
        <path class="cls-46" d="M272,440.59h0a.78.78,0,0,0,.23-1.08L270,436a.79.79,0,0,0-1.08-.24h0a.79.79,0,0,0-.23,1.08l2.28,3.53A.79.79,0,0,0,272,440.59Z"/>
        <path class="cls-46" d="M270,443.22h0a.79.79,0,0,0,.23-1.08L268,438.62a.78.78,0,0,0-1.08-.23h0a.78.78,0,0,0-.23,1.08L269,443A.79.79,0,0,0,270,443.22Z"/>
        <path class="cls-20" d="M281.1,396.42c.23.16-2.78,14-15.18,12.86"/>
        <path class="cls-20" d="M262.08,421.33s5.81,2.35,4.36,6.73-4.43,9.27-3.78,12.48a6.7,6.7,0,0,0,3.26,4.48"/>
      </g>
      <path class="cls-22" d="M248.71,449.91l17.46-52.68a2.32,2.32,0,0,1,2.63-1.55l4.24.81-19.11,57.65-3.72-1.24A2.36,2.36,0,0,1,248.71,449.91Z"/>
      <g class="cls-57">
        <line class="cls-37" x1="271.15" y1="396.23" x2="252.15" y2="453.55"/>
        <polyline class="cls-58" points="251.13 453.21 258.38 431.36 255.82 428.43"/>
        <rect class="cls-5" x="267.08" y="395.03" width="3.7" height="2.65" transform="translate(729.77 265.78) rotate(108.34)"/>
      </g>
      <polygon class="cls-16" points="286.13 432.82 291.33 405.14 296.61 406.16 286.13 432.82"/>
      <path class="cls-33" d="M352.91,352.93l-4.13,47.63s.17,9.81-13.33,7.44S300,397.47,300,397.47l-14.7,38.19c22.11,8.6,46.86,18.3,70.61,19.28,8.18.34,15.49-.48,20.56-7.63,2.74-3.86,4.26-8.44,5.57-13,2.36-8.22,5.18-16.13,7.33-24.42q3.57-13.81,5.8-27.93l-3.63-41.9Z"/>
      <polygon class="cls-54" points="451.7 432.35 449.01 410.3 478.38 413.41 478.4 434.95 468.37 439.89 451.7 432.35"/>
      <path class="cls-15" d="M450.43,449.36s-3.92-12,1.27-17a77.21,77.21,0,0,0,11.46,4.48,16.18,16.18,0,0,0,12.62-1.5,12.94,12.94,0,0,0,2.15-1.55c1.6.64,3.21,1.29,4.81,2q5.31,2.16,10.6,4.36,3.69,1.55,7.37,3.13c2.26,1,4.69,1.67,6.8,3a2.89,2.89,0,0,1,1.37,1.57c.12.43.29,1.46-.41,1.46Z"/>
      <g class="cls-59">
        <path class="cls-56" d="M447.76,440.41c.08-.26,14.21-1.77,17,10.37H447.21Z"/>
        <path class="cls-56" d="M475.06,450.38s.4-5.79,4.92-5.79,10,1.19,12.78-.32a6.17,6.17,0,0,0,3.17-4.16s13.25,4.08,13.49,4.24,2,4.52,2,4.52l-1,2.37Z"/>
        <path class="cls-46" d="M481.82,433.27h0a.78.78,0,0,0-1.1.12l-2.63,3.27a.79.79,0,0,0,.12,1.1h0a.79.79,0,0,0,1.1-.12l2.63-3.28A.78.78,0,0,0,481.82,433.27Z"/>
        <path class="cls-46" d="M484.94,434.33h0a.78.78,0,0,0-1.09.12l-2.63,3.27a.78.78,0,0,0,.12,1.1h0a.78.78,0,0,0,1.1-.12l2.62-3.27A.78.78,0,0,0,484.94,434.33Z"/>
        <path class="cls-46" d="M488.07,435.39h0a.79.79,0,0,0-1.1.13l-2.63,3.27a.8.8,0,0,0,.12,1.1h0a.8.8,0,0,0,1.1-.12l2.63-3.28A.79.79,0,0,0,488.07,435.39Z"/>
        <path class="cls-46" d="M491.19,436.46h0a.77.77,0,0,0-1.09.12l-2.63,3.27a.79.79,0,0,0,.12,1.1h0a.79.79,0,0,0,1.1-.12l2.62-3.27A.78.78,0,0,0,491.19,436.46Z"/>
        <path class="cls-46" d="M494.32,437.52h0a.79.79,0,0,0-1.1.12l-2.62,3.28a.77.77,0,0,0,.12,1.09h0a.77.77,0,0,0,1.09-.12l2.63-3.27A.79.79,0,0,0,494.32,437.52Z"/>
        <path class="cls-20" d="M446.41,441.74c.08-.27,14.21-1.78,17,10.36"/>
        <path class="cls-20" d="M476,452s.4-6.26,5-6.26,10.2,1.29,13-.34a6.73,6.73,0,0,0,3.24-4.5"/>
      </g>
      <path class="cls-22" d="M507.38,455.66h-55.5a2.33,2.33,0,0,1-2.3-2l-.57-4.29h60.74v3.93A2.37,2.37,0,0,1,507.38,455.66Z"/>
      <g class="cls-60">
        <line class="cls-37" x1="449.36" y1="451.24" x2="509.75" y2="451.24"/>
        <polyline class="cls-58" points="509.75 452.31 486.72 452.31 484.75 455.66"/>
        <rect class="cls-5" x="448.33" y="451.98" width="3.7" height="2.65"/>
      </g>
      <polygon class="cls-16" points="479 421.96 450.45 422.08 451.02 426.77 479 421.96"/>
      <path class="cls-33" d="M389.45,384.28,437,373.42s1.05-1.21,1.86,9c1.08,13.67,2.22,39.67,2.22,39.67h43.65c1.12-15.9.28-29.84,0-44.93a192.22,192.22,0,0,0-1.69-21.7c-.7-5.09-1.4-10.4-3.64-15.09-3.62-7.56-10.95-10.24-18.8-11.19-10.25-1.23-23.08,1.71-33.21,3.7-21,4.11-19.67,4-27.38,5.23l-33.11,12.38Z"/>
      <g class="cls-61">
        <line class="cls-37" x1="437.03" y1="373.42" x2="441.11" y2="364.49"/>
        <line class="cls-37" x1="296.61" y1="445.95" x2="314" y2="397.54"/>
        <path class="cls-37" d="M305.31,421.74s39.36,13.1,47.6,5,12.7-59.69,12.7-59.69"/>
        <line class="cls-37" x1="435.58" y1="408.52" x2="490.89" y2="408.25"/>
        <path class="cls-37" d="M395.13,374.08s56.92-27.08,59.35-16,4.58,50.33,4.58,50.33"/>
        <line class="cls-37" x1="395.12" y1="382.98" x2="395.12" y2="348.48"/>
        <path class="cls-37" d="M395.13,368.12l2-.52a4,4,0,0,0,2.66-2.4h0a3.9,3.9,0,0,0,.26-1.47l-.35-17.14"/>
      </g>
      <path class="cls-54" d="M285.46,256q-2.62-5.66-5-11.44c-1.12-2.73-2.19-5.49-3.14-8.29-.81-2.4-2.06-5.44-1.84-8,.17-2,1.5-2.58,2.86-1.45,2.12,1.76,3.41,4.76,4.57,7.18.27.58.55,1.17.81,1.76"/>
      <path class="cls-54" d="M288.61,250.88q-2.48-5.32-4.7-10.78c-1.21-2.92-2.36-5.87-3.38-8.87-.8-2.38-1.82-5-1.91-7.58-.06-1.64,1-3.24,2.56-2.22,2,1.3,3.23,4.09,4.26,6.12.51,1,1,2,1.46,3.08"/>
      <path class="cls-54" d="M287.26,234.74a4.82,4.82,0,0,0-.41-1.65c-.52-1.54-1-3.47-1.58-5a12.08,12.08,0,0,1-.71-4c0-1.13-.14-3.44,1.57-3.15s3,3,3.69,4.35c1,1.83,1.73,3.79,2.71,5.63l3.47,6.51s2-9,3.83-6.09c1.33,2.12,1.76,6.47,1.9,9.23a34,34,0,0,0,1.18,7.3c.28,1,.63,2.23,1.07,3.62l-20.68,12.8c-1.86-4-3.6-8-5.24-12.09-1-2.49-2-5-2.83-7.55-.8-2.35-1.91-5.13-1.9-7.64,0-1.7,1-3.22,2.6-2.13,2,1.38,3.27,4.21,4.32,6.31.46.93.91,1.88,1.34,2.84-.07-.15.75-1.21.83-1.35.64-1,1.27-2,1.9-3.08s1.32-2.12,2-3.18a7.3,7.3,0,0,0,.91-1.33A1,1,0,0,0,287.26,234.74Z"/>
      <line class="cls-28" x1="277.35" y1="236.24" x2="280.53" y2="243.05"/>
      <line class="cls-28" x1="279.43" y1="227.84" x2="284.66" y2="239.05"/>
      <line class="cls-28" x1="284.58" y1="225.76" x2="288.6" y2="235.71"/>
      <path class="cls-62" d="M295.19,238.53s-6.3,4.52-3.95,11.29"/>
      <path class="cls-54" d="M304,251.44s6.75,19,24.86,30.6,40.8,2.46,40.8,2.46L356,315.9s-17.87,6.61-42.1-7.58-30.61-44.08-30.61-44.08Z"/>
      <g class="cls-63">
        <polygon class="cls-16" points="338.51 286.35 340.08 317.21 333.71 318.3 338.51 286.35"/>
      </g>
      <path class="cls-54" d="M475.66,252.47q2.63-5.66,5-11.44c1.12-2.73,2.19-5.49,3.14-8.29.81-2.4,2.06-5.44,1.84-8-.17-2-1.5-2.58-2.86-1.45-2.12,1.76-3.41,4.76-4.57,7.18-.28.58-.55,1.17-.81,1.76"/>
      <path class="cls-54" d="M472.51,247.38q2.48-5.32,4.7-10.78c1.2-2.92,2.36-5.87,3.38-8.87.8-2.38,1.82-5,1.91-7.58.06-1.64-1-3.24-2.56-2.22-2,1.3-3.24,4.09-4.26,6.12-.51,1-1,2-1.46,3.08"/>
      <path class="cls-54" d="M473.85,231.25a4.89,4.89,0,0,1,.42-1.66c.52-1.54,1-3.47,1.58-5a12.08,12.08,0,0,0,.71-4c0-1.13.14-3.44-1.57-3.15s-3,3-3.69,4.35c-1,1.83-1.73,3.79-2.71,5.63l-3.47,6.51s-2-9-3.83-6.09c-1.33,2.12-1.76,6.47-1.9,9.23a34,34,0,0,1-1.18,7.3c-.28,1-.63,2.23-1.07,3.62l20.68,12.8c1.86-4,3.6-8,5.24-12.09,1-2.49,2-5,2.83-7.55.8-2.35,1.91-5.13,1.9-7.64,0-1.7-1-3.22-2.6-2.13-2,1.38-3.27,4.21-4.32,6.31-.47.93-.91,1.88-1.34,2.84.07-.15-.75-1.21-.83-1.35-.64-1-1.27-2-1.91-3.08l-2-3.18a7.9,7.9,0,0,1-.92-1.33A1.91,1.91,0,0,1,473.85,231.25Z"/>
      <line class="cls-28" x1="483.77" y1="232.74" x2="480.59" y2="239.55"/>
      <line class="cls-28" x1="481.69" y1="224.34" x2="476.46" y2="235.55"/>
      <line class="cls-28" x1="476.54" y1="222.26" x2="472.52" y2="232.21"/>
      <path class="cls-62" d="M465.93,235s6.3,4.52,3.95,11.29"/>
      <path class="cls-54" d="M457.14,248s-6.75,19-24.86,30.6S393.33,283,393.33,283L415,310.75s8,7.08,32.25-5.9c24.76-13.25,30.61-44.07,30.61-44.07Z"/>
      <g class="cls-64">
        <polygon class="cls-16" points="426.11 281.7 430.64 311.57 436.12 311.58 426.11 281.7"/>
      </g>
      <path d="M378.12,273.55a10.21,10.21,0,0,1-4-3.92c-1-1.6-1.8-3.34-2.81-4.94-.61-1-1.3-1.87-1.81-2.88a5.52,5.52,0,0,1-.68-3.29,3,3,0,0,1,2-2.49c.38-.11.77-.12,1.15-.21a5,5,0,0,0,2.71-2.33,7.68,7.68,0,0,1,2.4-2.71c.83-.47,1.24-1.57,2-2.11a2.94,2.94,0,0,1,2.7-.48,6.43,6.43,0,0,0,1.24.53c1.36.21,2.18-1.65,3.53-1.93,1.08-.23,2.06.62,2.84,1.4s1.73,1.64,2.82,1.46a9,9,0,0,0,1.23-.44,4.68,4.68,0,0,1,2.17-.06,2.63,2.63,0,0,1,2,1c.42.7.24,1.75.9,2.22s1.23.13,1.87.16a2.24,2.24,0,0,1,1.84,3,6.42,6.42,0,0,0-.64,1.32c-.13.67.26,1.33.24,2a2.14,2.14,0,0,1-1.36,1.77,4.88,4.88,0,0,1-2.31.26,2.16,2.16,0,0,0-1.84.4c.71.87,2,.88,3.11.9a.66.66,0,0,1,.48.13.47.47,0,0,1,0,.62,1.28,1.28,0,0,1-.59.33,6.67,6.67,0,0,1-7.06-2.12,7.22,7.22,0,0,0-.95-1.12,4.22,4.22,0,0,0-1-.57,13.65,13.65,0,0,0-6.92-.92,4.51,4.51,0,0,0-1.39.35,3.89,3.89,0,0,0-1.33,1.19c-1.38,1.83-1.72,4.23-1.83,6.52A29.34,29.34,0,0,1,378.12,273.55Z"/>
      <path class="cls-54" d="M386.27,299.8c11.62-3.55,9.83-13.5,9.78-14.52a66.27,66.27,0,0,0-7.72-3.58l-.42-7.51-5,.28-5.65-4.21L376.89,282s-4.21,1.41-11.2,3.6C364.49,294.43,377.78,302.4,386.27,299.8Z"/>
      <path class="cls-16" d="M388,276.34a7.19,7.19,0,0,1-5.45,1.58c-1.88-.27-2.73-2.35-3.93-3.94,0,0,.21,7.85,9.68,7.72Z"/>
      <path class="cls-54" d="M377,268.78c.91,6.9,3.84,10.35,8.48,10.59s7.34-2.14,7.59-15.12c.12-6.15-3.05-7.27-7.69-7.51S376.19,262.68,377,268.78Z"/>
      <ellipse class="cls-54" cx="376.61" cy="267.94" rx="1.88" ry="2.72" transform="translate(-40.73 69.3) rotate(-9.98)"/>
      <path class="cls-30" d="M386.32,271.41s.94.38,1.39-.31-.73-2.27-.73-2.27"/>
      <path class="cls-30" d="M385.94,273.41s-2.45,1-3.27-1.34"/>
      <path class="cls-31" d="M382.16,267.06a2,2,0,0,1,2.88.19"/>
      <path class="cls-31" d="M388.3,267.29a1.94,1.94,0,0,1,2.88,0"/>
      <path class="cls-30" d="M377.27,269.7s.38-2.64-1.36-2.56"/>
      <path d="M383.67,264.36l-1.16.18a.3.3,0,0,1-.34-.25h0a.31.31,0,0,1,.25-.35l1.16-.18a.32.32,0,0,1,.35.26h0A.3.3,0,0,1,383.67,264.36Z"/>
      <path d="M391.24,264.12l-1.14-.28a.3.3,0,0,0-.36.23h0a.3.3,0,0,0,.22.36l1.14.28a.32.32,0,0,0,.37-.23h0A.3.3,0,0,0,391.24,264.12Z"/>
      <path class="cls-15" d="M383.53,269.9a2.65,2.65,0,1,1,2.65-2.65A2.65,2.65,0,0,1,383.53,269.9Zm0-5a2.32,2.32,0,1,0,2.32,2.32A2.32,2.32,0,0,0,383.53,264.93Z"/>
      <path class="cls-15" d="M390,269.9a2.65,2.65,0,1,1,2.65-2.65A2.66,2.66,0,0,1,390,269.9Zm0-5a2.32,2.32,0,1,0,2.31,2.32A2.32,2.32,0,0,0,390,264.93Z"/>
      <polygon class="cls-15" points="381.61 265.84 376.88 265.53 376.91 265.15 381.63 265.47 381.61 265.84"/>
      <path class="cls-15" d="M385.94,266.33l-.3-.22a1.42,1.42,0,0,1,2.32,0l-.3.22a1,1,0,0,0-.85-.43A1,1,0,0,0,385.94,266.33Z"/>
      <path d="M376.57,264.29a1.84,1.84,0,0,1,.17.38c.07.17.1.36.18.53a1.55,1.55,0,0,0,.72.64,1.78,1.78,0,0,0,.84.22,1.27,1.27,0,0,0,1-.57c.6-.86,0-1.93.15-2.88a.46.46,0,0,1,.22-.38c.19-.08.39.11.52.29a3.4,3.4,0,0,0,1.19,1,1.65,1.65,0,0,0,1.54,0,1.72,1.72,0,0,0,.68-.88,4.38,4.38,0,0,0,.27-1.19c0-.44-.15-.88-.08-1.32a.6.6,0,0,1,.3-.46c1.12-.56,2,2.24,2.35,2.87s.93,1.11,1.47.44a3.62,3.62,0,0,0,.42-1.75c.12-.81.59-.12.76.21.45.88.92,2,1.91,2.32a1.06,1.06,0,0,0,.43.08,1,1,0,0,0,.5-.16,2.45,2.45,0,0,0,1-1.45,5.77,5.77,0,0,0,.15-1.81c-.07-1.38-.24-3.11-1.26-4.14a5.11,5.11,0,0,0-2.42-1.19,12.17,12.17,0,0,0-5.78-.25,11.17,11.17,0,0,0-7.4,6.44,2.86,2.86,0,0,0-.21,2.42A6.38,6.38,0,0,0,376.57,264.29Z"/>
      <path class="cls-46" d="M391.18,282.71l-2.86-.86a6.48,6.48,0,0,1-11.39.19h0l-7.25,2.46,2.64,70.25,30.09-9Z"/>
      <path class="cls-18" d="M390.3,282.52s2.67,38.67,6.77,59.5a20.12,20.12,0,0,0,12.24,15c19.06,7.43,23-25.09,23-25.09l-14.53,2.94L415.64,313s5.2,3.1,15.07,0c0,0-3.19-20-4.88-31.32C425.83,281.7,407.5,286.32,390.3,282.52Z"/>
      <g class="cls-65">
        <polygon class="cls-46" points="403.94 286.21 399.53 284.02 399.75 283.57 404.16 285.76 403.94 286.21"/>
        <polygon class="cls-46" points="413.49 294.4 411.66 290.32 412.11 290.11 413.95 294.2 413.49 294.4"/>
        <polygon class="cls-46" points="419.78 285.91 417 282.35 417.39 282.04 420.17 285.6 419.78 285.91"/>
        <polygon class="cls-46" points="428.85 286.02 426.45 285.32 426.59 284.84 428.99 285.55 428.85 286.02"/>
        <polygon class="cls-46" points="425.45 278.62 423.42 274.38 423.87 274.16 425.9 278.4 425.45 278.62"/>
        <polygon class="cls-46" points="409.8 276.04 409.64 271.77 410.13 271.75 410.3 276.02 409.8 276.04"/>
        <polygon class="cls-46" points="400.98 295.57 400.5 295.41 401.83 291.42 402.31 291.58 400.98 295.57"/>
        <polygon class="cls-46" points="408.04 305.08 407.55 305.01 408.12 301.09 408.61 301.16 408.04 305.08"/>
        <rect class="cls-46" x="397.42" y="303.27" width="0.5" height="4.53" transform="translate(-102.76 272.98) rotate(-33.81)"/>
        <rect class="cls-46" x="390.31" y="312.07" width="4.29" height="0.5" transform="translate(-35.85 573.32) rotate(-69.87)"/>
        <rect class="cls-46" x="384.04" y="305.05" width="4.39" height="0.5" transform="translate(5.98 618.03) rotate(-77.76)"/>
        <rect class="cls-46" x="389.02" y="298.29" width="0.5" height="4.86" transform="translate(-97.33 372.74) rotate(-46.11)"/>
        <polygon class="cls-46" points="391.87 295.01 391.2 290.61 391.7 290.54 392.37 294.93 391.87 295.01"/>
        <rect class="cls-46" x="386.06" y="280.67" width="0.5" height="4.1" transform="translate(-92.18 297.55) rotate(-37.97)"/>
        <rect class="cls-46" x="409.55" y="310.48" width="0.5" height="2.73" transform="translate(-71.51 128.74) rotate(-16.44)"/>
        <polygon class="cls-46" points="436.79 302.26 436.01 299.64 436.49 299.5 437.27 302.12 436.79 302.26"/>
        <rect class="cls-46" x="418.29" y="299.82" width="0.5" height="4.1" transform="translate(-95.95 341.87) rotate(-40.25)"/>
        <polygon class="cls-46" points="430.78 308.74 427.9 306.41 428.21 306.03 431.09 308.35 430.78 308.74"/>
        <polygon class="cls-46" points="426.94 299.62 425.41 294.41 425.88 294.27 427.42 299.48 426.94 299.62"/>
        <polygon class="cls-46" points="390.42 340.75 388.02 340.05 388.16 339.57 390.56 340.27 390.42 340.75"/>
        <polygon class="cls-46" points="387.02 333.34 384.99 329.11 385.44 328.89 387.47 333.13 387.02 333.34"/>
        <polygon class="cls-46" points="392.35 363.47 389.47 361.14 389.78 360.75 392.67 363.08 392.35 363.47"/>
        <polygon class="cls-46" points="388.52 354.35 386.98 349.14 387.46 349 389 354.21 388.52 354.35"/>
        <polygon class="cls-46" points="416.95 323.11 412.54 320.93 412.76 320.48 417.17 322.66 416.95 323.11"/>
        <polygon class="cls-46" points="426.5 331.31 424.67 327.22 425.12 327.02 426.96 331.11 426.5 331.31"/>
        <polygon class="cls-46" points="432.79 322.81 430.01 319.25 430.41 318.94 433.18 322.51 432.79 322.81"/>
        <polygon class="cls-46" points="441.86 322.93 439.46 322.23 439.6 321.75 442 322.45 441.86 322.93"/>
        <polygon class="cls-46" points="438.46 315.52 436.43 311.28 436.88 311.07 438.91 315.3 438.46 315.52"/>
        <polygon class="cls-46" points="422.81 312.94 422.65 308.67 423.15 308.65 423.31 312.92 422.81 312.94"/>
        <polygon class="cls-46" points="413.99 332.47 413.51 332.31 414.85 328.32 415.32 328.48 413.99 332.47"/>
        <polygon class="cls-46" points="421.05 341.99 420.56 341.92 421.13 337.99 421.62 338.06 421.05 341.99"/>
        <rect class="cls-46" x="410.43" y="340.17" width="0.5" height="4.54" transform="translate(-121.09 286.4) rotate(-33.81)"/>
        <rect class="cls-46" x="403.32" y="348.98" width="4.29" height="0.5" transform="translate(-61.95 609.77) rotate(-69.87)"/>
        <rect class="cls-46" x="397.05" y="341.96" width="4.39" height="0.5" transform="translate(-19.81 659.84) rotate(-77.76)"/>
        <rect class="cls-46" x="402.03" y="335.19" width="0.5" height="4.86" transform="translate(-119.93 393.45) rotate(-46.11)"/>
        <polygon class="cls-46" points="404.88 331.91 404.21 327.51 404.71 327.44 405.38 331.84 404.88 331.91"/>
        <polygon class="cls-46" points="387.3 322.92 386.62 318.52 387.12 318.44 387.79 322.84 387.3 322.92"/>
        <polygon class="cls-46" points="396.51 330.45 392.77 327.88 393.06 327.47 396.79 330.04 396.51 330.45"/>
        <rect class="cls-46" x="399.07" y="317.58" width="0.5" height="4.1" transform="translate(-112.13 313.35) rotate(-37.97)"/>
        <rect class="cls-46" x="422.56" y="347.39" width="0.5" height="2.73" transform="translate(-81.41 133.92) rotate(-16.44)"/>
        <rect class="cls-46" x="431.3" y="336.72" width="0.5" height="4.1" transform="translate(-116.71 359) rotate(-40.25)"/>
        <polygon class="cls-46" points="443.79 345.64 440.91 343.32 441.22 342.93 444.1 345.25 443.79 345.64"/>
        <polygon class="cls-46" points="439.95 336.52 438.42 331.31 438.89 331.17 440.43 336.38 439.95 336.52"/>
      </g>
      <path class="cls-18" d="M374.07,283s8.41,52.77,6.83,69.75c-2.25,24.08-29.48,17.39-29.48,17.39l4.59-54.5s-5.5,5.3-15.81,4.4c0,0-.91-22.52-1.69-33.95a75.91,75.91,0,0,0,27.1-.78C368.46,284.62,371.16,283.93,374.07,283Z"/>
      <g class="cls-66">
        <line class="cls-67" x1="347.81" y1="299.44" x2="352.22" y2="301.62"/>
        <line class="cls-67" x1="360.05" y1="305.85" x2="361.88" y2="309.94"/>
        <line class="cls-67" x1="365.36" y1="297.83" x2="368.14" y2="301.4"/>
        <line class="cls-67" x1="374.68" y1="300.72" x2="377.09" y2="301.42"/>
        <line class="cls-67" x1="371.81" y1="289.91" x2="373.84" y2="294.14"/>
        <line class="cls-67" x1="358.21" y1="291.66" x2="358.05" y2="287.4"/>
        <line class="cls-67" x1="348.91" y1="311.13" x2="350.24" y2="307.14"/>
        <line class="cls-67" x1="355.96" y1="320.69" x2="356.53" y2="316.76"/>
        <line class="cls-67" x1="347.1" y1="323.06" x2="344.57" y2="319.29"/>
        <line class="cls-67" x1="339.89" y1="329.98" x2="341.36" y2="325.94"/>
        <line class="cls-67" x1="333.93" y1="323.09" x2="334.86" y2="318.8"/>
        <line class="cls-67" x1="335.68" y1="314.67" x2="339.19" y2="318.04"/>
        <line class="cls-67" x1="342.14" y1="309.47" x2="339.61" y2="306.21"/>
        <line class="cls-67" x1="328.07" y1="306.41" x2="331.81" y2="308.98"/>
        <line class="cls-67" x1="341.03" y1="290.64" x2="343.55" y2="293.87"/>
        <line class="cls-67" x1="358.36" y1="328.8" x2="357.58" y2="326.18"/>
        <line class="cls-67" x1="365.38" y1="315.94" x2="368.03" y2="319.07"/>
        <line class="cls-67" x1="376.22" y1="321.86" x2="379.1" y2="324.18"/>
        <line class="cls-67" x1="375.35" y1="315.19" x2="373.81" y2="309.98"/>
        <line class="cls-67" x1="399.64" y1="283.8" x2="404.05" y2="285.98"/>
        <line class="cls-67" x1="411.88" y1="290.21" x2="413.72" y2="294.3"/>
        <line class="cls-67" x1="417.2" y1="282.19" x2="419.98" y2="285.76"/>
        <line class="cls-67" x1="426.52" y1="285.08" x2="428.92" y2="285.78"/>
        <line class="cls-67" x1="423.64" y1="274.27" x2="425.68" y2="278.51"/>
        <line class="cls-67" x1="410.05" y1="276.03" x2="409.89" y2="271.76"/>
        <line class="cls-67" x1="400.74" y1="295.49" x2="402.07" y2="291.5"/>
        <line class="cls-67" x1="407.8" y1="305.05" x2="408.36" y2="301.12"/>
        <line class="cls-67" x1="398.93" y1="307.42" x2="396.41" y2="303.65"/>
        <line class="cls-67" x1="391.72" y1="314.34" x2="393.2" y2="310.31"/>
        <line class="cls-67" x1="385.77" y1="307.45" x2="386.7" y2="303.16"/>
        <line class="cls-67" x1="387.52" y1="299.03" x2="391.02" y2="302.4"/>
        <line class="cls-67" x1="392.12" y1="294.97" x2="391.45" y2="290.57"/>
        <line class="cls-67" x1="379.9" y1="290.77" x2="383.64" y2="293.34"/>
        <line class="cls-67" x1="385.05" y1="281.11" x2="387.57" y2="284.34"/>
        <line class="cls-67" x1="410.19" y1="313.16" x2="409.42" y2="310.54"/>
        <line class="cls-67" x1="437.03" y1="302.19" x2="436.25" y2="299.57"/>
        <line class="cls-67" x1="417.21" y1="300.3" x2="419.86" y2="303.43"/>
        <line class="cls-67" x1="428.05" y1="306.22" x2="430.94" y2="308.55"/>
        <line class="cls-67" x1="427.18" y1="299.55" x2="425.65" y2="294.34"/>
        <line class="cls-67" x1="361.21" y1="338.53" x2="365.62" y2="340.71"/>
        <line class="cls-67" x1="373.46" y1="344.94" x2="375.29" y2="349.03"/>
        <line class="cls-67" x1="378.77" y1="336.92" x2="381.55" y2="340.49"/>
        <line class="cls-67" x1="388.09" y1="339.81" x2="390.49" y2="340.51"/>
        <line class="cls-67" x1="385.21" y1="329" x2="387.25" y2="333.23"/>
        <line class="cls-67" x1="371.62" y1="330.75" x2="371.46" y2="326.49"/>
        <line class="cls-67" x1="362.31" y1="350.22" x2="363.64" y2="346.23"/>
        <line class="cls-67" x1="369.37" y1="359.78" x2="369.94" y2="355.85"/>
        <line class="cls-67" x1="360.5" y1="362.15" x2="357.98" y2="358.38"/>
        <line class="cls-67" x1="353.3" y1="369.07" x2="354.77" y2="365.03"/>
        <line class="cls-67" x1="347.34" y1="362.18" x2="348.27" y2="357.89"/>
        <line class="cls-67" x1="349.09" y1="353.76" x2="352.59" y2="357.13"/>
        <line class="cls-67" x1="353.69" y1="349.7" x2="353.02" y2="345.3"/>
        <line class="cls-67" x1="341.48" y1="345.5" x2="345.21" y2="348.07"/>
        <line class="cls-67" x1="346.62" y1="335.84" x2="349.14" y2="339.07"/>
        <line class="cls-67" x1="371.76" y1="367.89" x2="370.99" y2="365.27"/>
        <line class="cls-67" x1="378.79" y1="355.03" x2="381.43" y2="358.16"/>
        <line class="cls-67" x1="389.63" y1="360.95" x2="392.51" y2="363.27"/>
        <line class="cls-67" x1="388.76" y1="354.28" x2="387.22" y2="349.07"/>
        <line class="cls-67" x1="412.65" y1="320.7" x2="417.06" y2="322.89"/>
        <line class="cls-67" x1="424.89" y1="327.12" x2="426.73" y2="331.21"/>
        <line class="cls-67" x1="430.21" y1="319.1" x2="432.99" y2="322.66"/>
        <line class="cls-67" x1="439.53" y1="321.99" x2="441.93" y2="322.69"/>
        <line class="cls-67" x1="436.65" y1="311.17" x2="438.69" y2="315.41"/>
        <line class="cls-67" x1="423.06" y1="312.93" x2="422.9" y2="308.66"/>
        <line class="cls-67" x1="413.75" y1="332.39" x2="415.08" y2="328.4"/>
        <line class="cls-67" x1="420.81" y1="341.95" x2="421.37" y2="338.03"/>
        <line class="cls-67" x1="411.94" y1="344.33" x2="409.42" y2="340.56"/>
        <line class="cls-67" x1="404.73" y1="351.24" x2="406.21" y2="347.21"/>
        <line class="cls-67" x1="398.78" y1="344.35" x2="399.71" y2="340.06"/>
        <line class="cls-67" x1="400.53" y1="335.94" x2="404.03" y2="339.31"/>
        <line class="cls-67" x1="405.13" y1="331.87" x2="404.46" y2="327.48"/>
        <line class="cls-67" x1="387.54" y1="322.88" x2="386.87" y2="318.48"/>
        <line class="cls-67" x1="392.91" y1="327.67" x2="396.65" y2="330.24"/>
        <line class="cls-67" x1="398.06" y1="318.01" x2="400.58" y2="321.24"/>
        <line class="cls-67" x1="423.2" y1="350.06" x2="422.43" y2="347.44"/>
        <line class="cls-67" x1="430.22" y1="337.21" x2="432.87" y2="340.34"/>
        <line class="cls-67" x1="441.07" y1="343.12" x2="443.95" y2="345.45"/>
        <line class="cls-67" x1="440.19" y1="336.45" x2="438.66" y2="331.24"/>
      </g>
      <polygon class="cls-12" points="354.46 333.77 395.05 282.63 401.28 283.75 353.91 343.42 354.46 333.77"/>
      <g class="cls-68">
        <line class="cls-30" x1="352.03" y1="334.19" x2="359.73" y2="342.72"/>
        <line class="cls-30" x1="353.57" y1="332.07" x2="361.28" y2="340.6"/>
        <line class="cls-30" x1="355.12" y1="329.95" x2="362.82" y2="338.49"/>
        <line class="cls-30" x1="356.67" y1="327.84" x2="364.37" y2="336.37"/>
        <line class="cls-30" x1="358.21" y1="325.72" x2="365.91" y2="334.25"/>
        <line class="cls-30" x1="359.76" y1="323.6" x2="367.46" y2="332.13"/>
        <line class="cls-30" x1="361.3" y1="321.48" x2="369.01" y2="330.02"/>
        <line class="cls-30" x1="362.85" y1="319.37" x2="370.55" y2="327.9"/>
        <line class="cls-30" x1="364.4" y1="317.25" x2="372.1" y2="325.78"/>
        <line class="cls-30" x1="365.94" y1="315.13" x2="373.64" y2="323.67"/>
        <line class="cls-30" x1="367.49" y1="313.02" x2="375.19" y2="321.55"/>
        <line class="cls-30" x1="369.03" y1="310.9" x2="376.74" y2="319.43"/>
        <line class="cls-30" x1="370.58" y1="308.78" x2="378.28" y2="317.32"/>
        <line class="cls-30" x1="372.13" y1="306.67" x2="379.83" y2="315.2"/>
        <line class="cls-30" x1="373.67" y1="304.55" x2="381.37" y2="313.08"/>
        <line class="cls-30" x1="375.22" y1="302.43" x2="382.92" y2="310.97"/>
        <line class="cls-30" x1="376.77" y1="300.32" x2="384.47" y2="308.85"/>
        <line class="cls-30" x1="378.31" y1="298.2" x2="386.01" y2="306.73"/>
        <line class="cls-30" x1="379.86" y1="296.08" x2="387.56" y2="304.62"/>
        <line class="cls-30" x1="381.4" y1="293.96" x2="389.11" y2="302.5"/>
        <line class="cls-30" x1="382.95" y1="291.85" x2="390.65" y2="300.38"/>
        <line class="cls-30" x1="384.5" y1="289.73" x2="392.2" y2="298.26"/>
        <line class="cls-30" x1="386.04" y1="287.61" x2="393.74" y2="296.15"/>
        <line class="cls-30" x1="387.59" y1="285.5" x2="395.29" y2="294.03"/>
        <line class="cls-30" x1="389.13" y1="283.38" x2="396.84" y2="291.91"/>
        <line class="cls-30" x1="390.68" y1="281.26" x2="398.38" y2="289.8"/>
        <line class="cls-30" x1="392.23" y1="279.15" x2="399.93" y2="287.68"/>
        <line class="cls-30" x1="393.77" y1="277.03" x2="401.47" y2="285.56"/>
      </g>
      <path class="cls-69" d="M389.49,289.78c7.21,5.76,7.54,17.32.75,25.81s-18.15,10.7-25.35,4.93"/>
    </g>
  </g>
</svg>