<svg width="185" height="150" viewBox="0 0 185 150" fill="none" xmlns="http://www.w3.org/2000/svg">
<path d="M88.9385 129.741C88.9385 128.075 87.524 126.724 85.7792 126.724H27.4515C25.7067 126.724 24.2922 128.075 24.2922 129.741C24.2922 131.408 25.7067 132.759 27.4515 132.759H85.7792C87.5241 132.759 88.9385 131.408 88.9385 129.741Z" fill="#0B5FAC"/>
<path fill-rule="evenodd" clip-rule="evenodd" d="M28.301 139.706C28.794 140.731 29.8056 141.379 30.9127 141.379H86.0217C87.6326 141.379 88.9385 140.028 88.9385 138.362C88.9385 136.696 87.6326 135.345 86.0217 135.345H30.9127C28.7472 135.345 27.3368 137.7 28.301 139.706Z" fill="#2697FF"/>
<path fill-rule="evenodd" clip-rule="evenodd" d="M88.9382 146.983C88.9382 148.649 87.6177 150 85.9888 150H34.6625C33.543 150 32.52 149.352 32.0216 148.326C31.0465 146.321 32.4727 143.966 34.6625 143.966H85.9888C87.6177 143.966 88.9382 145.316 88.9382 146.983Z" fill="#2697FF"/>
<path d="M95.9751 129.741C95.9751 128.075 97.3895 126.724 99.1343 126.724H157.462C159.207 126.724 160.621 128.075 160.621 129.741C160.621 131.408 159.207 132.759 157.462 132.759H99.1343C97.3895 132.759 95.9751 131.408 95.9751 129.741Z" fill="#0B5FAC"/>
<path fill-rule="evenodd" clip-rule="evenodd" d="M156.613 139.706C156.12 140.731 155.108 141.379 154.001 141.379H98.8918C97.281 141.379 95.9751 140.028 95.9751 138.362C95.9751 136.696 97.281 135.345 98.8918 135.345H154.001C156.166 135.345 157.577 137.7 156.613 139.706Z" fill="#2697FF"/>
<path fill-rule="evenodd" clip-rule="evenodd" d="M95.9753 146.983C95.9753 148.649 97.2958 150 98.9248 150H150.251C151.371 150 152.394 149.352 152.892 148.326C153.867 146.321 152.441 143.966 150.251 143.966H98.9248C97.2958 143.966 95.9753 145.316 95.9753 146.983Z" fill="#2697FF"/>
<path d="M86.6608 108.388C88.0022 109.125 89.0394 110.428 89.0394 111.955V118.951C89.0394 121.816 86.6958 124.138 83.8418 124.138H25.0555C23.007 124.138 21.1423 122.923 20.3167 121.042L0.441161 75.7467C-0.653913 73.2511 0.355577 70.3304 2.73985 69.0232C8.11249 66.0774 17.4391 60.8082 23.8483 56.3342C33.3728 49.6855 38.4072 45.3901 47.0273 37.4123C54.4003 30.5887 58.7315 25.7453 64.6115 19.1698L64.6129 19.1683C65.9037 17.7248 67.2691 16.1979 68.7577 14.5482C72.1405 10.7995 76.2174 6.07808 79.8261 1.84132C82.9672 -1.84658 89.0394 0.375657 89.0394 5.22758V83.5777C89.0394 85.1053 88.0022 86.4074 86.6608 87.1451C82.9228 89.2008 80.3884 93.1865 80.3884 97.7664C80.3884 102.346 82.9228 106.332 86.6608 108.388Z" fill="#2697FF"/>
<path d="M98.3076 108.346C96.9822 109.087 95.9606 110.382 95.9606 111.898V118.951C95.9606 121.816 98.3042 124.138 101.158 124.138H159.945C161.993 124.138 163.858 122.923 164.683 121.042L184.559 75.7467C185.654 73.2511 184.644 70.3304 182.26 69.0232C176.887 66.0774 167.561 60.8082 161.152 56.3342C151.627 49.6855 146.593 45.3901 137.973 37.4123C130.6 30.589 126.269 25.7456 120.389 19.1705C119.098 17.7266 117.731 16.1985 116.242 14.5482C112.859 10.7995 108.783 6.07808 105.174 1.84132C102.033 -1.84658 95.9606 0.375657 95.9606 5.22758V83.6354C95.9606 85.1509 96.9822 86.4459 98.3076 87.1874C102.004 89.2551 104.504 93.2177 104.504 97.7664C104.504 102.315 102.004 106.278 98.3076 108.346Z" fill="#2697FF"/>
</svg>
